<svg width="1000" height="1000" viewBox="0 0 1000 1000" fill="none" xmlns="http://www.w3.org/2000/svg">
<path d="M471.829 0.252792C456.639 1.32734 430.8 4.1791 430.016 4.96435C429.356 5.62562 442.771 105.27 443.637 106.138C443.844 106.344 446.485 106.014 449.622 105.6C462.294 103.534 491.642 102.087 509.556 102.542L528.419 103.079L528.955 98.6158C530.152 89.1101 535.188 1.57533 534.61 1.03805C533.826 0.252802 480.827 -0.367142 471.746 0.252792H471.829Z" fill="white"/>
<path d="M570.686 8.02259C569.612 13.602 556.817 105.807 557.147 106.137C557.353 106.261 562.389 107.212 568.374 108.204C583.976 110.808 608.742 117.048 624.923 122.421C632.559 124.942 638.791 127.009 638.791 126.885C638.791 126.761 646.881 105.476 656.788 79.3564C666.611 53.3605 674.454 31.6215 674.124 31.1668C673.257 29.6377 638.213 18.6028 621.208 14.4285C605.729 10.5849 577.207 5.04691 573.286 5.04691C571.965 5.04691 571.098 6.03877 570.686 7.98123V8.02259Z" fill="white"/>
<path d="M374.706 15.5446C342.056 24.0583 293.392 42.3258 293.392 45.9214C293.392 48.5251 334.627 137.176 335.865 137.258C336.402 137.258 342.841 134.861 350.147 131.886C367.483 124.777 389.854 117.338 403.847 114.197C411.07 112.544 415.074 111.014 415.074 110.146C415.074 109.361 410.369 87.2089 404.714 60.9651C399.059 34.7212 394.353 12.8995 394.353 12.4449C394.353 10.9157 389.565 11.6596 374.706 15.5032V15.5446Z" fill="white"/>
<path d="M686.383 91.5897C674.578 116.842 665.084 137.713 665.208 137.795C665.414 138.002 670.45 140.523 676.559 143.581C692.616 151.558 707.227 160.196 723.697 171.437C731.663 176.81 738.639 180.819 739.093 180.282C739.547 179.744 747.843 168.71 757.419 155.815C767.119 142.92 780.658 124.984 787.551 116.057L800.099 99.6489L795.641 96.2599C789.202 91.4658 766.624 76.3807 756.14 70.016C745.986 63.8993 710.612 45.4252 709.002 45.4252C708.342 45.4252 698.188 66.1724 686.424 91.5484L686.383 91.5897Z" fill="white"/>
<path d="M244.809 69.9747C226.483 81.0095 210.344 92.0444 196.681 102.418C182.73 113.122 172.906 121.305 172.906 122.091C172.782 122.545 182.936 134.324 195.484 148.334C207.909 162.428 222.892 179.703 228.877 186.812L239.691 199.706L242.622 197.185C262.145 181.232 283.527 166.023 300.244 156.435C305.155 153.583 309.2 150.773 309.2 150.194C309.2 149.12 261.609 63.1142 260.288 61.6677C259.834 61.337 252.858 65.0566 244.809 69.9747Z" fill="white"/>
<path d="M472.365 120.561C465.596 121.016 439.84 123.95 434.928 124.818C431.419 125.48 431.213 125.81 431.873 128.868C432.204 130.728 432.74 132.382 432.947 132.588C433.153 132.795 438.189 132.258 444.091 131.39C464.151 128.331 486.977 127.133 509.225 127.794L530.73 128.455V121.223L521.773 120.561C512.816 119.776 483.015 119.776 472.324 120.561H472.365Z" fill="white"/>
<path d="M793.99 160.361L760.061 198.714L775.457 213.593C788.789 226.611 809.056 249.094 816.279 259.055L818.467 262.113L832.666 251.285C840.426 245.375 858.546 231.488 872.952 220.453C887.357 209.419 899.368 200.244 899.575 200.037C901.886 198.053 858.01 149.244 836.257 129.571L827.96 122.132L794.031 160.361H793.99Z" fill="white"/>
<path d="M564.164 127.133C562.843 130.522 563.504 132.919 566.021 133.456C587.65 138.25 593.965 139.779 602.262 142.218C616.461 146.351 630.082 151.186 643.167 156.642C649.482 159.369 655.178 161.766 655.839 162.014C656.912 162.552 660.296 156.352 659.43 155.443C659.223 155.236 653.114 152.509 645.891 149.533C623.313 140.027 599.414 132.712 574.318 127.587C566.021 125.851 564.618 125.852 564.164 127.133Z" fill="white"/>
<path d="M384.53 136.845C362.034 143.747 328.972 157.923 310.645 168.627L306.064 171.355L307.797 174.206C308.788 175.859 309.778 177.265 309.778 177.471C309.902 177.595 315.02 174.95 321.006 171.561C340.199 161.064 375.696 146.764 395.22 141.639C399.802 140.441 400.793 138.787 399.141 134.655C398.275 132.464 399.348 132.34 384.53 136.845Z" fill="white"/>
<path d="M478.351 145.111C405.457 150.484 338.754 176.356 280.059 221.817C265.984 232.852 233.128 265.295 221.901 279.512C169.728 345.391 142.444 423.213 142.444 506.243C142.444 589.273 169.934 667.219 221.695 732.436C234.367 748.265 264.251 778.105 279.977 790.256C350.683 845.223 434.061 871.756 521.938 867.293C573.575 864.689 618.855 852.745 665.332 829.477C749.907 787.197 814.504 713.425 845.42 623.948C857.638 588.529 863.417 556.086 864.614 517.195C866.347 455.45 853.923 398.085 826.764 343.903C798.407 287.53 753.539 237.233 700.706 202.723C653.114 171.809 598.795 152.467 541.916 146.351C526.726 144.698 493.128 144.036 478.392 145.152L478.351 145.111ZM457.96 270.792C461.138 271.453 470.178 274.718 477.938 278.025C490.692 283.604 493.128 284.265 499.856 284.265C506.749 284.389 509.143 283.728 523.012 278.149C541.875 270.503 547.901 269.304 557.601 270.833C576.134 273.768 591.984 284.183 599.29 298.152C602.468 304.392 601.89 315.428 597.639 326.256C593.181 337.828 574.937 373.66 558.881 402.507C543.154 430.611 502.332 499.217 501.259 499.217C498.535 499.217 439.716 397.176 419.614 357.707C400.958 320.759 397.986 309.641 403.682 297.615C408.387 287.448 421.678 277.405 436.538 272.693C446.155 269.635 449.87 269.304 457.919 270.833L457.96 270.792ZM352.871 348.284C368.349 356.136 413.671 402.466 479.011 477.23C493.623 493.968 499.071 500.829 497.998 501.49C494.82 503.226 414.62 521.039 378.173 528.023C334.833 536.33 302.431 540.463 291.947 538.934C273.951 536.413 262.806 517.402 263.797 490.869C264.127 481.156 264.581 479.173 267.718 472.849C269.699 468.923 275.024 461.608 280.059 456.028C295.786 438.546 296.776 435.612 295.001 410.029C293.804 394.2 293.928 391.762 295.662 385.315C298.056 376.346 304.289 366.758 312.792 358.864C326.66 345.969 341.066 342.25 352.83 348.284H352.871ZM670.45 347.085C685.929 352.004 700.912 367.089 706.237 383.248C707.764 388.166 707.97 391.101 707.227 402.797C705.7 427.057 705.907 431.314 709.085 437.43C710.736 440.365 716.391 448.135 721.839 454.706C727.288 461.153 732.984 468.799 734.387 471.651C744.417 491.447 738.226 523.436 722.17 534.719L717.381 537.984H699.261C680.068 537.86 673.711 537.116 636.274 530.214C595.451 522.692 506.171 503.102 504.437 501.366C503.447 500.499 507.946 494.795 531.391 468.055C577.331 415.609 624.138 366.965 640.319 354.649C652.66 345.267 659.099 343.614 670.45 347.127V347.085ZM499.979 510.335C499.525 514.178 498.246 528.271 497.049 541.786C490.279 618.162 481.446 682.511 474.801 704.043C469.022 722.931 458.992 729.378 436.703 728.428C427.663 727.973 424.031 727.229 416.643 724.295C404.755 719.707 397.449 712.722 389.153 697.761C378.256 678.213 374.293 675.237 350.518 669.658C333.388 665.608 325.628 661.681 317.58 652.92C301.647 635.644 297.189 611.715 307.302 597.539C314.608 587.248 365.708 561.169 449.829 524.552C467.825 516.782 485.945 508.93 490.114 507.07C500.929 502.358 500.805 502.358 500.062 510.335H499.979ZM519.833 510.211C586.205 538.066 651.876 568.774 676.312 583.528C693.978 594.233 698.89 599.936 700.541 611.839C702.274 624.072 694.886 642.753 683.824 654.242C676.064 662.219 669.418 665.401 652.082 669.12C630.701 673.708 625.996 677.221 614.438 696.976C601.024 719.914 584.637 729.42 560.408 728.428C544.145 727.766 534.775 722.435 529.863 711.069C523.3 695.654 515.128 642.463 507.492 564.186C502.91 517.402 501.837 503.557 502.91 503.557C503.447 503.557 511.083 506.615 519.833 510.211Z" fill="white"/>
<path d="M136.335 157.055C119.33 174.992 100.301 198.673 86.6801 219.007L79.9109 229.05L97.1643 240.415C106.658 246.656 125.645 259.096 139.39 268.271C153.135 277.322 164.816 284.761 165.27 284.761C165.724 284.761 169.522 279.719 173.773 273.52C183.803 258.889 197.466 241.945 209.683 228.926L219.631 218.428L183.308 182.679C163.248 163.13 146.655 147.053 146.324 147.053C145.994 147.053 141.536 151.517 136.377 157.013L136.335 157.055Z" fill="white"/>
<path d="M687.786 174.33L686.053 177.389L704.173 189.415C724.357 202.971 737.565 213.221 753.374 227.893L763.941 237.729L766.335 235.208C767.532 233.885 768.646 232.48 768.646 232.026C768.646 231.695 762.868 226.115 755.892 219.668C737.648 203.178 712.882 184.828 694.432 174.082L689.52 171.231L687.786 174.289V174.33Z" fill="white"/>
<path d="M266.562 197.474C247.699 211.898 226.854 231.116 211.871 247.979L204.235 256.616L206.753 259.22L209.147 261.824L224.873 245.416C241.466 228.264 257.811 213.51 272.547 202.599C277.459 199.004 281.504 195.945 281.71 195.697C282.247 195.16 278.532 189.705 277.583 189.705C277.129 189.705 272.134 193.218 266.562 197.474Z" fill="white"/>
<path d="M878.359 256.616C855.533 271.577 836.463 284.265 836.009 284.803C835.473 285.257 838.073 290.713 841.788 296.912C849.424 309.931 863.83 338.985 868.948 352.21L872.539 361.178L876.46 359.649C886.284 356.136 967.804 325.016 968.135 324.685C969.001 323.9 955.587 293.11 946.96 276.041C938.333 258.765 922.401 230.91 920.543 229.711C920.089 229.505 901.019 241.531 878.317 256.575L878.359 256.616Z" fill="white"/>
<path d="M788.542 259.468L785.941 261.452L798.365 277.942C811.12 295.094 823.255 314.435 833.161 333.653L838.94 344.812L841.994 343.159C843.646 342.291 845.049 341.299 845.049 340.969C845.049 339.109 830.643 312.452 823.214 300.632C814.587 286.745 793.206 257.484 791.803 257.484C791.348 257.484 789.945 258.476 788.542 259.468Z" fill="white"/>
<path d="M51.8843 279.016C38.4695 306.459 19.2348 356.508 21.3399 358.657C22.2067 359.443 115.863 387.505 117.72 387.505C118.38 387.505 120.651 382.256 122.838 375.685C128.741 357.872 134.065 344.854 142.816 326.504L150.906 309.889L148.512 308.36C147.191 307.492 128.658 297.119 107.36 285.299C86.061 273.396 66.9913 262.774 65.1339 261.576L61.5429 259.385L51.9256 278.934L51.8843 279.016Z" fill="white"/>
<path d="M181.079 287.324C171.709 299.681 154.126 331.794 145.045 353.119C136.872 372.461 136.748 372.916 141.124 373.866C142.981 374.321 144.632 374.404 144.715 374.197C144.921 374.073 147.109 368.411 149.75 361.84C157.84 341.506 169.934 318.238 182.813 298.565C186.321 293.192 189.128 288.522 189.128 288.067C189.128 287.613 187.931 286.414 186.404 285.464C183.886 283.811 183.679 283.811 181.038 287.324H181.079Z" fill="white"/>
<path d="M930.202 373.412C904.115 381.264 882.528 387.836 882.28 388.042C882.074 388.373 883.601 395.812 885.788 404.657C890.04 421.808 893.301 440.819 895.406 459.624L896.603 471.114L916.993 469.791C928.138 469.13 950.84 467.725 967.309 466.733C983.778 465.658 997.647 464.418 998.101 464.129C999.092 463.261 996.45 437.802 993.519 419.659C989.268 393.002 980.971 359.112 978.908 359.236C978.247 359.236 956.329 365.683 930.243 373.453L930.202 373.412Z" fill="white"/>
<path d="M854.873 373.536C853.469 374.073 852.025 374.734 851.818 374.941C851.612 375.148 853.139 380.603 855.203 387.175C859.785 401.061 864.903 421.477 867.297 434.496C868.824 442.596 872.332 467.187 872.332 469.667C872.332 470.122 874.066 470.535 876.254 470.535H880.092L879.432 464.212C878.029 451.317 873.323 424.536 870.145 411.765C866.884 398.209 859.578 374.404 858.257 373.205C857.927 372.751 856.4 372.875 854.873 373.536Z" fill="white"/>
<path d="M9.20465 406.31C4.29278 433.298 1.77489 454.83 0.784259 482.024L0 500.581H102.902V492.811C102.902 476.073 107.029 438.05 111.074 418.626L111.735 415.361L79.2091 408.376C61.2952 404.45 39.3775 399.739 30.2968 397.796C21.3398 395.73 13.3736 394.076 12.7132 394.076C11.9289 394.076 10.5255 399.201 9.12214 406.31H9.20465Z" fill="white"/>
<path d="M124.324 416.601C118.958 439.332 115.697 465.121 114.624 492.646L114.17 503.35H117.679C120.733 503.35 121.27 502.895 121.93 499.961C122.26 498.101 122.591 492.315 122.591 487.066C122.591 469.254 127.048 437.141 132.538 415.485C133.735 410.773 134.519 406.723 134.272 406.516C134.024 406.31 132.414 405.731 130.557 405.442L127.172 404.781L124.324 416.601Z" fill="white"/>
<path d="M897.016 516.038C896.231 534.306 894.167 553.317 890.783 572.08C889.586 578.858 888.802 584.52 888.925 584.644C890.122 585.429 988.112 606.301 988.566 605.97C989.35 605.102 994.345 576.461 996.079 562.368C998.142 545.96 1000 520.295 1000 508.268V499.507H897.758L896.974 515.997L897.016 516.038Z" fill="white"/>
<path d="M874.107 504.673C873.777 505.458 873.323 513.517 873.034 522.609C872.167 545.01 869.113 567.41 863.541 591.133C862.22 596.382 861.477 600.969 861.683 601.3C862.013 601.506 863.664 601.961 865.398 602.374L868.659 603.035L871.177 592.207C877.079 566.418 881.124 534.388 881.124 513.104V503.391H877.864C876.006 503.391 874.355 504.053 874.149 504.714L874.107 504.673Z" fill="white"/>
<path d="M57.6629 531.867C32.9797 533.52 10.3191 534.925 7.14083 534.925L1.36218 535.049L2.02262 541.827C5.07706 572.08 9.45228 598.324 15.8914 623.452C18.2028 632.751 20.2667 640.604 20.5969 640.81C20.8033 641.017 40.3683 635.561 63.937 628.453C120.898 611.508 118.298 612.376 118.298 611.095C118.298 610.433 116.771 603.986 114.913 596.795C111.074 581.71 107.071 558.565 105.213 540.753C104.429 534.099 103.562 528.643 103.149 528.643C102.819 528.767 82.4288 530.172 57.7456 531.908L57.6629 531.867Z" fill="white"/>
<path d="M116.482 544.555C118.793 567.41 124.902 596.34 132.538 620.518C136.996 635.065 138.193 636.471 142.486 633.082C144.137 631.883 143.889 630.684 140.504 620.518C133.281 598.655 126.553 567.203 124.242 544.555L123.457 537.24H115.821L116.482 544.555Z" fill="white"/>
<path d="M879.432 618.865C876.047 630.685 865.563 656.763 857.514 673.625C852.203 684.702 850.346 690.749 851.942 691.769C853.263 692.554 871.259 702.679 891.98 714.293C912.7 725.865 931.688 736.569 934.205 738.016L938.911 740.744L948.528 721.195C953.77 710.491 961.076 694.083 964.791 684.825C972.427 665.483 979.981 642.546 978.99 641.554C978.123 640.686 884.591 612.707 882.527 612.707C881.867 612.707 880.464 615.558 879.473 618.947L879.432 618.865Z" fill="white"/>
<path d="M846.246 645.067C837.619 666.393 823.544 693.05 810.996 711.731L805.754 719.583L808.932 721.774L812.11 724.088L818.013 715.12C827.961 699.911 836.257 685.198 843.976 668.997C851.405 653.498 858.587 635.686 857.845 634.9C857.638 634.694 855.987 634.239 854.254 633.826C851.075 633.165 850.993 633.288 846.287 645.067H846.246Z" fill="white"/>
<path d="M80.0347 656.97C53.9481 666.93 32.4431 675.237 32.2367 675.444C31.3699 676.229 44.7847 706.895 53.4114 724.088C62.0382 741.239 77.9708 769.219 79.7044 770.294C80.3648 770.748 154.456 722.765 163.413 716.194C165.394 714.789 165.146 714.128 158.707 703.175C149.874 688.297 140.381 669.41 134.684 655.771C132.167 649.779 129.566 643.538 128.782 641.885L127.461 638.95L79.9934 656.97H80.0347Z" fill="white"/>
<path d="M153.919 664.326C151.195 665.194 150.865 665.731 151.525 668.253C152.598 672.964 166.921 698.423 176.827 713.714C185.784 727.27 203.038 750.332 204.235 750.332C204.565 750.332 205.969 749.34 207.289 748.017L209.683 745.703L201.924 735.743C187.188 716.938 175.3 698.381 163.825 676.394C156.932 663.293 156.932 663.169 153.878 664.285L153.919 664.326Z" fill="white"/>
<path d="M826.185 727.146C816.238 741.57 801.502 759.713 789.532 772.401L780.699 781.783L817.27 817.533L853.923 853.365L858.298 849.108C871.92 836.089 897.593 804.762 912.081 783.436L920.502 771.203L915.796 768.021C905.642 761.119 836.876 716.111 835.679 715.698C835.019 715.492 830.643 720.616 826.185 727.187V727.146Z" fill="white"/>
<path d="M142.775 767.897C121.806 784.18 103.686 798.067 102.489 798.935C100.508 800.34 100.508 800.588 103.026 804.06C115.697 821.872 170.595 879.691 172.782 877.501C173.319 876.964 188.715 859.688 206.959 839.024L240.145 801.414L220.374 781.618C209.477 770.707 196.475 756.614 191.439 750.249C186.404 743.926 182.07 738.677 181.616 738.553C181.285 738.429 163.825 751.654 142.775 767.855V767.897Z" fill="white"/>
<path d="M775.746 757.069C763.652 770.707 742.684 789.966 726.421 802.406C719.652 807.531 714.079 812.119 714.079 812.573C714.079 813.028 714.946 814.557 716.06 815.962L718.124 818.359L727.288 811.457C747.596 796.042 764.189 781.081 779.667 763.929L791.555 750.911L789.161 748.389C787.84 746.984 786.56 745.868 786.23 745.868C785.9 745.868 781.194 750.911 775.746 757.027V757.069Z" fill="white"/>
<path d="M229.455 772.815L226.854 775.667L234.49 782.775C255.459 802.448 281.545 822.203 301.276 833.486C304.33 835.222 306.407 835.373 307.508 833.94C308.499 832.742 309.242 831.213 309.242 830.551C309.242 829.89 305.197 826.832 300.202 823.897C280.555 811.788 257.523 794.058 239.856 777.444L232.096 770.005L229.496 772.856L229.455 772.815Z" fill="white"/>
<path d="M749.04 809.969C735.708 820.674 719.569 831.915 702.893 842.082C696.454 846.008 691.088 849.604 691.088 850.059C690.965 850.844 738.762 936.932 740.001 938.254C742.601 940.982 817.807 889.528 826.227 879.154C827.424 877.749 825.03 874.567 811.615 859.481C802.864 849.645 788.583 833.155 779.874 822.988C771.123 812.697 763.281 803.522 762.29 802.572C760.639 800.836 759.772 801.249 749.082 810.011L749.04 809.969Z" fill="white"/>
<path d="M252.157 831.915C247.038 839.024 233.293 857.25 221.612 872.583L200.231 900.439L206.877 905.233C217.773 913.209 240.269 927.757 252.487 934.742C266.892 942.925 291.575 955.282 292.195 954.538C293.185 953.546 335.411 862.54 335.081 862.085C334.874 861.961 329.839 859.358 323.854 856.423C308.581 848.901 293.392 840.016 276.922 828.898C269.162 823.525 262.393 819.186 262.063 819.186C261.733 819.186 257.275 824.972 252.115 831.957L252.157 831.915Z" fill="white"/>
<path d="M667.726 839.272C647.955 849.315 627.771 857.622 608.783 863.408C601.56 865.598 595.699 867.458 595.451 867.541C595.327 867.747 595.575 869.277 596.112 871.136C596.772 873.451 597.515 874.195 599.042 873.988C603.5 873.327 626.862 865.681 638.75 860.969C651.958 855.845 685.227 839.644 687.662 837.247C688.736 836.172 688.859 835.263 687.786 832.99C687.002 831.337 686.135 830.138 685.805 830.138C685.475 830.262 677.302 834.271 667.685 839.189L667.726 839.272Z" fill="white"/>
<path d="M337.475 847.992C336.484 849.976 336.484 851.257 337.268 852.042C341.644 856.423 385.933 871.922 410.369 877.625C430.016 882.337 431.007 882.336 431.873 878.617C432.327 876.964 432.327 875.435 431.997 875.104C431.667 874.773 424.155 872.789 415.28 870.847C395.427 866.466 375.325 860.143 356.131 852.29C348.041 849.025 340.735 846.05 340.075 845.719C339.291 845.388 338.094 846.504 337.475 848.034V847.992Z" fill="white"/>
<path d="M656.251 865.805C640.443 873.12 594.172 887.999 587.279 887.999C586.082 887.999 585.297 888.784 585.297 890.065C585.297 891.264 590.003 913.457 595.658 939.577C601.313 965.573 606.018 987.229 606.018 987.643C606.018 989.172 610.146 988.511 625.335 984.708C655.013 977.062 706.65 958.051 707.186 954.538C707.516 951.81 665.621 863.408 663.846 863.201C662.979 863.077 659.471 864.276 656.21 865.805H656.251Z" fill="white"/>
<path d="M359.516 878.575C358.443 881.634 350.229 903.042 341.52 925.98C332.769 949.041 325.794 968.383 326.124 968.921C328.105 971.979 382.755 987.271 409.956 992.313C429.397 995.826 429.067 995.826 429.81 991.445C431.007 984.336 443.431 894.074 443.142 893.991C443.018 893.867 436.827 892.669 429.273 891.388C411.813 888.205 389.442 882.543 373.963 877.17L361.745 872.913L359.558 878.575H359.516Z" fill="white"/>
<path d="M548.768 876.509C532.505 879.113 503.57 880.559 484.253 879.774L465.596 878.989L464.812 882.047C464.358 883.7 464.482 885.312 464.936 885.891C466.587 887.544 503.694 888.205 521.484 886.965C540.471 885.56 562.513 882.832 563.71 881.593C564.04 881.138 564.164 879.526 563.834 877.749C563.173 874.36 562.637 874.236 548.768 876.426V876.509Z" fill="white"/>
<path d="M544.393 895.314C537.293 896.388 522.888 896.967 502.58 897.05L471.788 897.256L471.251 900.521C470.178 908.291 465.018 998.429 465.803 999.215C466.133 999.669 481.611 1000 499.979 1000C524.662 1000 538.284 999.463 551.492 998.016C561.44 996.942 569.819 995.702 570.273 995.288C570.727 994.875 567.879 971.896 564.04 944.247C560.119 916.598 556.941 893.867 556.941 893.661C556.941 893.537 556.61 893.537 556.156 893.537C555.62 893.661 550.378 894.405 544.351 895.273L544.393 895.314Z" fill="white"/>
</svg>
