<svg width="1500" height="1500" viewBox="0 0 1500 1500" fill="none" xmlns="http://www.w3.org/2000/svg">
<g clip-path="url(#clip0_1_134)">
<rect width="742" height="722" transform="translate(398 386)" fill="white"/>
<path d="M707.733 0.388041C684.949 1.99994 646.191 6.27766 645.014 7.45558C644.024 8.44752 664.146 157.92 665.446 159.222C665.755 159.532 669.718 159.036 674.423 158.416C693.431 155.316 737.452 153.146 764.323 153.828L792.618 154.634L793.423 147.938C795.218 133.679 802.772 2.37191 801.905 1.56596C800.729 0.388041 721.231 -0.541898 707.61 0.388041H707.733Z" fill="#006837"/>
<path d="M856.018 11.9813C854.409 20.3507 835.215 158.664 835.71 159.16C836.02 159.346 843.574 160.772 852.551 162.26C875.955 166.165 913.103 175.527 937.374 183.586C948.828 187.368 958.177 190.468 958.177 190.282C958.177 190.096 970.312 158.168 985.172 118.986C999.907 79.9909 1011.67 47.381 1011.18 46.699C1009.88 44.4052 957.31 27.8523 931.802 21.5907C908.584 15.825 865.801 7.51758 859.919 7.51758C857.938 7.51758 856.638 9.00548 856.018 11.9193V11.9813Z" fill="#006837"/>
<path d="M562.049 23.3266C513.075 36.0977 440.078 63.4999 440.078 68.8936C440.078 72.7993 501.93 205.781 503.787 205.905C504.592 205.905 514.251 202.309 525.21 197.845C551.214 187.182 584.771 176.023 605.76 171.311C616.595 168.831 622.601 166.537 622.601 165.235C622.601 164.057 615.543 130.828 607.061 91.4601C598.578 52.0927 591.52 19.3588 591.52 18.6769C591.52 16.383 584.338 17.4989 562.049 23.2646V23.3266Z" fill="#006837"/>
<path d="M1029.56 137.399C1011.86 175.279 997.617 206.587 997.802 206.711C998.112 207.021 1005.67 210.802 1014.83 215.39C1038.91 227.355 1060.83 240.312 1085.54 257.175C1097.48 265.235 1107.95 271.248 1108.63 270.443C1109.31 269.637 1121.76 253.084 1136.12 233.741C1150.67 214.398 1170.98 187.492 1181.32 174.101L1200.14 149.488L1193.45 144.405C1183.79 137.213 1149.93 114.585 1134.2 105.037C1118.97 95.8619 1065.91 68.1496 1063.49 68.1496C1062.5 68.1496 1047.27 99.2716 1029.63 137.337L1029.56 137.399Z" fill="#006837"/>
<path d="M367.204 104.913C339.714 121.466 315.506 138.019 295.012 153.58C274.085 169.637 259.349 181.912 259.349 183.09C259.164 183.772 274.395 201.441 293.217 222.458C311.853 243.598 334.328 269.513 343.305 280.176L359.527 299.519L363.923 295.737C393.208 271.806 425.28 248.992 450.355 234.609C457.723 230.331 463.791 226.115 463.791 225.247C463.791 223.636 392.403 94.6219 390.422 92.4521C389.741 91.9561 379.278 97.5357 367.204 104.913Z" fill="#006837"/>
<path d="M708.538 180.858C698.384 181.54 659.75 185.942 652.382 187.244C647.119 188.236 646.81 188.732 647.8 193.32C648.296 196.109 649.1 198.589 649.41 198.899C649.72 199.209 657.273 198.403 666.127 197.101C696.217 192.514 730.456 190.716 763.828 191.708L796.085 192.7V181.85L782.65 180.858C769.214 179.68 724.512 179.68 708.476 180.858H708.538Z" fill="#006837"/>
<path d="M1190.98 240.498L1140.08 298.031L1163.18 320.349C1183.17 339.878 1213.57 373.604 1224.41 388.545L1227.69 393.133L1248.99 376.89C1260.63 368.024 1287.81 347.194 1309.42 330.641C1331.03 314.088 1349.04 300.325 1349.35 300.015C1352.82 297.039 1287 223.822 1254.38 194.311L1241.93 183.152L1191.04 240.498H1190.98Z" fill="#006837"/>
<path d="M846.236 190.654C844.255 195.737 845.245 199.333 849.022 200.139C881.465 207.331 890.938 209.624 903.383 213.282C924.681 219.482 945.113 226.735 964.74 234.919C974.213 239.011 982.757 242.606 983.748 242.978C985.358 243.784 990.435 234.485 989.134 233.121C988.825 232.811 979.661 228.719 968.826 224.256C934.959 209.996 899.111 199.023 861.467 191.336C849.022 188.732 846.917 188.732 846.236 190.654Z" fill="#006837"/>
<path d="M576.785 205.223C543.041 215.576 493.448 236.841 465.958 252.898L459.085 256.989L461.686 261.267C463.172 263.747 464.658 265.855 464.658 266.165C464.843 266.351 472.521 262.383 481.498 257.299C510.288 241.552 563.535 220.102 592.82 212.414C599.693 210.616 601.179 208.137 598.702 201.937C597.402 198.651 599.012 198.465 576.785 205.223Z" fill="#006837"/>
<path d="M717.516 217.622C608.175 225.681 508.121 264.491 420.079 332.686C398.966 349.239 349.682 397.906 332.842 419.233C254.582 518.054 213.657 634.793 213.657 759.343C213.657 883.893 254.892 1000.82 332.532 1098.65C351.54 1122.39 396.366 1167.15 419.955 1185.38C526.015 1267.83 651.082 1307.64 782.898 1300.94C860.352 1297.03 928.272 1279.12 997.988 1244.21C1124.85 1180.79 1221.75 1070.13 1268.12 935.907C1286.45 882.777 1295.12 834.11 1296.91 775.772C1299.51 683.15 1280.87 597.099 1240.14 515.823C1197.6 431.26 1130.3 355.811 1051.05 304.044C979.661 257.671 898.182 228.657 812.864 219.482C790.08 217.002 739.681 216.01 717.578 217.684L717.516 217.622ZM686.93 406.152C691.698 407.144 705.257 412.041 716.897 417.001C736.028 425.37 739.681 426.362 749.773 426.362C760.113 426.548 763.704 425.556 784.507 417.187C812.802 405.718 821.842 403.92 836.392 406.214C864.191 410.615 887.966 426.238 898.925 447.193C903.692 456.554 902.826 473.107 896.449 489.35C889.762 506.709 862.396 560.46 838.311 603.733C814.722 645.89 753.488 748.804 751.878 748.804C747.792 748.804 659.564 595.735 629.412 536.529C601.426 481.105 596.969 464.428 605.513 446.387C612.571 431.136 632.507 416.071 654.797 409.004C669.223 404.416 674.795 403.92 686.868 406.214L686.93 406.152ZM529.296 522.394C552.514 534.173 620.496 603.671 718.507 715.822C740.424 740.93 748.597 751.221 746.987 752.213C742.22 754.817 621.92 781.537 567.25 792.015C502.24 804.476 453.637 810.676 437.911 808.382C410.916 804.6 394.199 776.082 395.685 736.28C396.18 721.711 396.861 718.736 401.567 709.25C404.539 703.361 412.526 692.387 420.079 684.018C443.669 657.793 445.154 653.392 442.492 615.016C440.697 591.272 440.882 587.614 443.483 577.943C447.074 564.489 456.423 550.106 469.177 538.265C489.98 518.922 511.589 513.343 529.234 522.394H529.296ZM1005.67 520.596C1028.88 527.974 1051.36 550.602 1059.35 574.843C1061.64 582.22 1061.95 586.622 1060.83 604.167C1058.54 640.559 1058.85 646.944 1063.62 656.12C1066.09 660.521 1074.58 672.176 1082.75 682.034C1090.92 691.705 1099.47 703.175 1101.57 707.452C1116.62 737.148 1107.33 785.133 1083.24 802.058L1076.06 806.956H1048.88C1020.09 806.77 1010.56 805.654 954.4 795.301C893.167 784.017 759.246 754.631 756.646 752.027C755.16 750.725 761.909 742.17 797.076 702.059C865.987 623.386 936.198 550.416 960.468 531.942C978.98 517.868 988.639 515.389 1005.67 520.658V520.596ZM749.959 765.48C749.278 771.246 747.359 792.387 745.563 812.659C735.409 927.228 722.159 1023.76 712.191 1056.06C703.523 1084.39 688.478 1094.06 655.044 1092.63C641.485 1091.95 636.037 1090.84 624.954 1086.43C607.123 1079.55 596.164 1069.07 583.719 1046.63C567.373 1017.31 561.43 1012.84 525.767 1004.47C500.073 998.399 488.433 992.51 476.359 979.367C452.46 953.452 445.774 917.557 460.943 896.292C471.902 880.855 548.552 841.736 674.733 786.807C701.728 775.152 728.908 763.373 735.162 760.583C751.383 753.515 751.197 753.515 750.083 765.48H749.959ZM779.74 765.294C879.298 807.08 977.804 853.143 1014.46 875.275C1040.96 891.332 1048.32 899.888 1050.8 917.743C1053.4 936.093 1042.32 964.116 1025.73 981.351C1014.09 993.316 1004.12 998.089 978.114 1003.67C946.042 1010.55 938.984 1015.82 921.648 1045.45C901.526 1079.86 876.945 1094.12 840.602 1092.63C816.207 1091.64 802.153 1083.64 794.785 1066.59C784.941 1043.47 772.682 963.682 761.227 846.261C754.355 776.082 752.745 755.313 754.355 755.313C755.16 755.313 766.614 759.901 779.74 765.294Z" fill="#006837"/>
<path d="M204.493 235.601C178.985 262.507 150.442 298.031 130.01 328.533L119.856 343.598L145.736 360.647C159.977 370.008 188.457 388.669 209.075 402.432C229.692 416.009 247.214 427.168 247.895 427.168C248.576 427.168 254.272 419.605 260.65 410.305C275.695 388.359 296.188 362.941 314.515 343.412L329.437 327.665L274.952 274.038C244.861 244.714 219.972 220.598 219.477 220.598C218.981 220.598 212.294 227.293 204.555 235.539L204.493 235.601Z" fill="#006837"/>
<path d="M1031.67 261.453L1029.07 266.041L1056.25 284.082C1086.53 304.416 1106.34 319.791 1130.05 341.8L1145.9 356.555L1149.49 352.773C1151.29 350.789 1152.96 348.681 1152.96 347.999C1152.96 347.504 1144.29 339.134 1133.83 329.463C1106.46 304.726 1069.31 277.2 1041.64 261.081L1034.27 256.803L1031.67 261.391V261.453Z" fill="#006837"/>
<path d="M399.833 296.233C371.538 317.869 340.271 346.698 317.797 371.992L306.342 384.949L310.119 388.855L313.71 392.761L337.3 368.148C362.189 342.42 386.707 320.287 408.811 303.92C416.179 298.527 422.246 293.939 422.556 293.567C423.361 292.761 417.788 284.578 416.364 284.578C415.683 284.578 408.192 289.847 399.833 296.233Z" fill="#006837"/>
<path d="M1317.53 384.887C1283.29 407.33 1254.69 426.362 1254 427.168C1253.2 427.85 1257.1 436.034 1262.67 445.333C1274.13 464.862 1295.73 508.445 1303.41 528.284L1308.8 541.737L1314.68 539.443C1329.42 534.173 1451.7 487.49 1452.19 486.994C1453.49 485.817 1433.37 439.63 1420.43 414.025C1407.49 388.111 1383.59 346.326 1380.8 344.528C1380.12 344.218 1351.52 362.259 1317.47 384.825L1317.53 384.887Z" fill="#006837"/>
<path d="M1182.8 389.165L1178.9 392.141L1197.54 416.877C1216.67 442.605 1234.87 471.62 1249.73 500.448L1258.4 517.187L1262.98 514.707C1265.46 513.405 1267.56 511.917 1267.56 511.421C1267.56 508.631 1245.96 468.644 1234.81 450.913C1221.87 430.082 1189.8 386.189 1187.69 386.189C1187.01 386.189 1184.91 387.677 1182.8 389.165Z" fill="#006837"/>
<path d="M77.8164 418.489C57.6942 459.654 28.8421 534.731 31.9997 537.955C33.2999 539.133 173.784 581.228 176.57 581.228C177.56 581.228 180.966 573.355 184.247 563.497C193.101 536.777 201.088 517.248 214.214 489.722L226.349 464.8L222.758 462.506C220.777 461.204 192.977 445.643 161.029 427.912C129.082 410.057 100.477 394.124 97.6909 392.327L92.3044 389.041L77.8783 418.365L77.8164 418.489Z" fill="#006837"/>
<path d="M271.608 430.95C257.554 449.487 231.178 497.658 217.557 529.648C205.298 558.662 205.112 559.344 211.675 560.77C214.461 561.452 216.938 561.576 217.062 561.266C217.371 561.08 220.653 552.586 224.615 542.729C236.751 512.227 254.892 477.323 274.209 447.813C279.472 439.754 283.682 432.748 283.682 432.066C283.682 431.384 281.886 429.586 279.595 428.16C275.819 425.68 275.509 425.68 271.547 430.95H271.608Z" fill="#006837"/>
<path d="M1395.29 560.15C1356.16 571.929 1323.78 581.786 1323.41 582.096C1323.1 582.592 1325.39 593.752 1328.67 607.019C1335.05 632.747 1339.94 661.265 1343.1 689.473L1344.89 706.708L1375.48 704.724C1392.2 703.732 1426.25 701.625 1450.95 700.137C1475.66 698.525 1496.46 696.665 1497.14 696.231C1498.63 694.929 1494.67 656.739 1490.27 629.523C1483.89 589.536 1471.45 538.699 1468.35 538.885C1467.36 538.885 1434.48 548.556 1395.35 560.212L1395.29 560.15Z" fill="#006837"/>
<path d="M1282.3 560.274C1280.19 561.08 1278.03 562.072 1277.72 562.382C1277.41 562.692 1279.7 570.875 1282.79 580.732C1289.67 601.563 1297.34 632.189 1300.94 651.718C1303.23 663.869 1308.49 700.757 1308.49 704.476C1308.49 705.158 1311.09 705.778 1314.37 705.778H1320.13L1319.14 696.293C1317.03 676.95 1309.97 636.777 1305.21 617.62C1300.32 597.285 1289.36 561.576 1287.38 559.778C1286.88 559.096 1284.59 559.282 1282.3 560.274Z" fill="#006837"/>
<path d="M13.7969 609.499C6.42909 649.982 2.65231 682.282 1.16636 723.075L-0.0100098 750.911H154.343V739.256C154.343 714.148 160.534 657.112 166.602 627.973L167.592 623.076L118.804 612.598C91.9329 606.709 59.0563 599.641 45.4352 596.727C31.9997 593.628 20.0503 591.148 19.0596 591.148C17.8833 591.148 15.7782 598.835 13.6731 609.499H13.7969Z" fill="#006837"/>
<path d="M186.476 624.874C178.427 658.971 173.536 697.657 171.926 738.946L171.245 755.003H176.508C181.09 755.003 181.894 754.321 182.885 749.919C183.38 747.13 183.876 738.45 183.876 730.577C183.876 703.856 190.562 655.686 198.797 623.2C200.593 616.132 201.769 610.057 201.398 609.747C201.026 609.437 198.611 608.569 195.825 608.135L190.748 607.143L186.476 624.874Z" fill="#006837"/>
<path d="M1345.51 774.036C1344.34 801.438 1341.24 829.956 1336.16 858.102C1334.37 868.27 1333.19 876.763 1333.38 876.949C1335.17 878.127 1482.16 909.435 1482.84 908.939C1484.02 907.637 1491.51 864.674 1494.11 843.533C1497.2 818.921 1499.99 780.421 1499.99 762.381V749.237H1346.63L1345.45 773.974L1345.51 774.036Z" fill="#006837"/>
<path d="M1311.15 756.987C1310.66 758.165 1309.97 770.254 1309.54 783.893C1308.24 817.495 1303.66 851.097 1295.3 886.683C1293.32 894.556 1292.21 901.438 1292.51 901.934C1293.01 902.244 1295.49 902.926 1298.09 903.545L1302.98 904.537L1306.76 888.294C1315.61 849.609 1321.68 801.562 1321.68 769.634V755.065H1316.79C1314 755.065 1311.52 756.057 1311.21 757.049L1311.15 756.987Z" fill="#006837"/>
<path d="M86.4844 797.78C49.4596 800.26 15.4686 802.368 10.7012 802.368L2.03317 802.554L3.0238 812.721C7.60546 858.102 14.1684 897.47 23.827 935.163C27.2942 949.113 30.39 960.892 30.8853 961.202C31.1948 961.512 60.5423 953.328 95.8954 942.665C181.337 917.247 177.437 918.549 177.437 916.627C177.437 915.635 175.146 905.963 172.36 895.176C166.602 872.547 160.596 837.83 157.81 811.109C156.633 801.128 155.333 792.945 154.714 792.945C154.219 793.131 123.633 795.239 86.6082 797.842L86.4844 797.78Z" fill="#006837"/>
<path d="M174.712 816.813C178.18 851.097 187.343 894.494 198.797 930.762C205.484 952.584 207.279 954.692 213.718 949.608C216.195 947.811 215.824 946.013 210.747 930.762C199.912 897.966 189.82 850.787 186.352 816.813L185.176 805.84H173.722L174.712 816.813Z" fill="#006837"/>
<path d="M1319.14 928.282C1314.06 946.013 1298.33 985.132 1286.26 1010.43C1278.3 1027.04 1275.51 1036.11 1277.9 1037.64C1279.88 1038.82 1306.88 1054.01 1337.96 1071.43C1369.04 1088.79 1397.52 1104.85 1401.3 1107.02L1408.36 1111.11L1422.78 1081.78C1430.65 1065.73 1441.6 1041.11 1447.18 1027.23C1458.63 998.213 1469.96 963.806 1468.48 962.318C1467.18 961.016 1326.88 919.044 1323.78 919.044C1322.79 919.044 1320.69 923.322 1319.2 928.406L1319.14 928.282Z" fill="#006837"/>
<path d="M1269.36 967.649C1256.42 999.639 1235.31 1039.63 1216.48 1067.65L1208.62 1079.43L1213.39 1082.71L1218.16 1086.19L1227.01 1072.73C1241.93 1049.92 1254.38 1027.85 1265.95 1003.55C1277.1 980.297 1287.87 953.576 1286.76 952.398C1286.45 952.088 1283.97 951.406 1281.37 950.786C1276.6 949.794 1276.48 949.98 1269.42 967.649H1269.36Z" fill="#006837"/>
<path d="M120.042 985.504C80.9121 1000.45 48.6547 1012.91 48.3451 1013.22C47.0449 1014.39 67.1671 1060.4 80.1072 1086.19C93.0473 1111.91 116.946 1153.89 119.547 1155.5C120.537 1156.18 231.674 1084.2 245.109 1074.34C248.081 1072.24 247.709 1071.24 238.051 1054.82C224.801 1032.5 210.561 1004.16 202.017 983.706C198.24 974.717 194.339 965.356 193.163 962.876L191.182 958.474L119.98 985.504H120.042Z" fill="#006837"/>
<path d="M230.869 996.477C226.782 997.779 226.287 998.585 227.278 1002.37C228.887 1009.43 250.372 1047.62 265.231 1070.56C278.667 1090.9 304.547 1125.49 306.342 1125.49C306.838 1125.49 308.943 1124 310.924 1122.02L314.515 1118.55L302.875 1103.61C280.772 1075.4 262.94 1047.56 245.728 1014.58C235.389 994.928 235.389 994.742 230.807 996.415L230.869 996.477Z" fill="#006837"/>
<path d="M1239.27 1090.71C1224.35 1112.35 1202.24 1139.56 1184.29 1158.6L1171.04 1172.67L1225.9 1226.3L1280.88 1280.05L1287.44 1273.66C1307.87 1254.13 1346.38 1207.14 1368.11 1175.15L1380.74 1156.8L1373.68 1152.03C1358.45 1141.67 1255.3 1074.16 1253.51 1073.54C1252.52 1073.23 1245.96 1080.92 1239.27 1090.77V1090.71Z" fill="#006837"/>
<path d="M214.152 1151.84C182.699 1176.27 155.519 1197.1 153.723 1198.4C150.752 1200.51 150.752 1200.88 154.528 1206.09C173.536 1232.81 255.882 1319.54 259.164 1316.25C259.969 1315.45 283.063 1289.53 310.429 1258.53L360.208 1202.12L330.551 1172.42C314.206 1156.06 294.703 1134.91 287.149 1125.37C279.595 1115.88 273.094 1108.01 272.413 1107.82C271.918 1107.64 245.728 1127.47 214.152 1151.78V1151.84Z" fill="#006837"/>
<path d="M1163.61 1135.66C1145.47 1156.12 1114.02 1185.01 1089.62 1203.67C1079.47 1211.36 1071.11 1218.24 1071.11 1218.92C1071.11 1219.6 1072.41 1221.89 1074.08 1224L1077.18 1227.6L1090.92 1217.25C1121.38 1194.12 1146.27 1171.68 1169.49 1145.95L1187.32 1126.42L1183.73 1122.64C1181.75 1120.53 1179.83 1118.86 1179.34 1118.86C1178.84 1118.86 1171.78 1126.42 1163.61 1135.6V1135.66Z" fill="#006837"/>
<path d="M344.172 1159.22L340.271 1163.49L351.726 1174.16C383.178 1203.67 422.308 1233.3 451.903 1250.23C456.485 1252.83 459.601 1253.06 461.252 1250.91C462.738 1249.11 463.853 1246.82 463.853 1245.83C463.853 1244.83 457.785 1240.25 450.293 1235.84C420.822 1217.68 386.274 1191.08 359.775 1166.16L348.135 1155L344.234 1159.28L344.172 1159.22Z" fill="#006837"/>
<path d="M1123.55 1214.95C1103.55 1231.01 1079.34 1247.87 1054.33 1263.12C1044.67 1269.01 1036.62 1274.41 1036.62 1275.09C1036.44 1276.27 1108.13 1405.4 1109.99 1407.39C1113.89 1411.48 1226.7 1334.29 1239.33 1318.73C1241.13 1316.62 1237.53 1311.85 1217.41 1289.22C1204.29 1274.47 1182.86 1249.73 1169.8 1234.48C1156.67 1219.04 1144.91 1205.28 1143.43 1203.85C1140.95 1201.25 1139.65 1201.87 1123.61 1215.01L1123.55 1214.95Z" fill="#006837"/>
<path d="M378.225 1247.93C370.548 1258.6 349.93 1285.94 332.408 1308.94L300.337 1350.72L310.305 1357.91C326.65 1369.88 360.394 1391.7 378.72 1402.18C400.328 1414.45 437.353 1432.99 438.282 1431.88C439.768 1430.39 503.106 1293.87 502.611 1293.19C502.301 1293 494.748 1289.1 485.77 1284.7C462.862 1273.41 440.078 1260.08 415.374 1243.41C403.734 1235.35 393.58 1228.84 393.084 1228.84C392.589 1228.84 385.902 1237.52 378.163 1248L378.225 1247.93Z" fill="#006837"/>
<path d="M1001.58 1258.91C971.922 1273.97 941.646 1286.43 913.165 1295.11C902.33 1298.4 893.539 1301.19 893.167 1301.31C892.981 1301.62 893.353 1303.92 894.158 1306.71C895.148 1310.18 896.263 1311.29 898.554 1310.98C905.24 1309.99 940.284 1298.52 958.115 1291.45C977.928 1283.77 1027.83 1259.46 1031.48 1255.87C1033.09 1254.26 1033.28 1252.89 1031.67 1249.48C1030.49 1247 1029.19 1245.21 1028.7 1245.21C1028.2 1245.39 1015.94 1251.4 1001.52 1258.78L1001.58 1258.91Z" fill="#006837"/>
<path d="M506.202 1271.99C504.716 1274.96 504.716 1276.89 505.892 1278.06C512.455 1284.63 578.89 1307.88 615.543 1316.44C645.014 1323.51 646.5 1323.51 647.8 1317.93C648.481 1315.45 648.481 1313.15 647.986 1312.66C647.491 1312.16 636.222 1309.19 622.911 1306.27C593.13 1299.7 562.978 1290.21 534.187 1278.44C522.052 1273.54 511.093 1269.07 510.103 1268.58C508.926 1268.08 507.131 1269.76 506.202 1272.05V1271.99Z" fill="#006837"/>
<path d="M984.367 1298.71C960.654 1309.68 891.248 1332 880.908 1332C879.112 1332 877.936 1333.18 877.936 1335.1C877.936 1336.9 884.994 1370.19 893.477 1409.37C901.959 1448.37 909.017 1480.85 909.017 1481.47C909.017 1483.77 915.209 1482.77 937.993 1477.07C982.51 1465.6 1059.96 1437.08 1060.77 1431.81C1061.26 1427.72 998.422 1295.11 995.759 1294.8C994.459 1294.62 989.196 1296.41 984.305 1298.71H984.367Z" fill="#006837"/>
<path d="M539.264 1317.93C537.655 1322.51 525.334 1354.63 512.27 1389.04C499.144 1423.63 488.68 1452.64 489.176 1453.45C492.147 1458.04 574.122 1480.98 614.924 1488.54C644.085 1493.81 643.59 1493.81 644.705 1487.24C646.5 1476.57 665.136 1341.18 664.703 1341.05C664.517 1340.87 655.23 1339.07 643.9 1337.15C617.71 1332.37 584.152 1323.88 560.934 1315.82L542.608 1309.43L539.326 1317.93H539.264Z" fill="#006837"/>
<path d="M823.142 1314.83C798.748 1318.73 755.346 1320.9 726.37 1319.72L698.384 1318.55L697.208 1323.13C696.527 1325.61 696.713 1328.03 697.394 1328.9C699.87 1331.38 755.531 1332.37 782.216 1330.51C810.697 1328.4 843.759 1324.31 845.555 1322.45C846.05 1321.77 846.236 1319.35 845.741 1316.69C844.75 1311.6 843.945 1311.42 823.142 1314.7V1314.83Z" fill="#006837"/>
<path d="M816.579 1342.97C805.93 1344.58 784.322 1345.45 753.86 1345.58L707.672 1345.89L706.867 1350.78C705.257 1362.44 697.518 1497.65 698.694 1498.83C699.189 1499.51 722.407 1500.01 749.959 1500.01C786.984 1500.01 807.416 1499.2 827.228 1497.03C842.15 1495.42 854.718 1493.56 855.399 1492.94C856.08 1492.32 851.808 1457.85 846.05 1416.38C840.168 1374.9 835.401 1340.8 835.401 1340.49C835.401 1340.31 834.906 1340.31 834.225 1340.31C833.42 1340.49 825.557 1341.61 816.517 1342.91L816.579 1342.97Z" fill="#006837"/>
</g>
<defs>
<clipPath id="clip0_1_134">
<rect width="1500" height="1500" fill="white"/>
</clipPath>
</defs>
</svg>
