<?xml version="1.0" encoding="UTF-8"?>
<svg id="Layer_1" data-name="Layer 1" xmlns="http://www.w3.org/2000/svg" viewBox="0 0 601.17 537.69">
  <defs>
    <style>
      .cls-1 {
        fill: #000224;
      }

      .cls-1, .cls-2, .cls-3, .cls-4, .cls-5, .cls-6, .cls-7, .cls-8, .cls-9, .cls-10, .cls-11, .cls-12, .cls-13, .cls-14, .cls-15, .cls-16, .cls-17, .cls-18, .cls-19, .cls-20, .cls-21, .cls-22, .cls-23, .cls-24, .cls-25, .cls-26, .cls-27, .cls-28, .cls-29, .cls-30, .cls-31, .cls-32, .cls-33, .cls-34, .cls-35, .cls-36, .cls-37, .cls-38, .cls-39, .cls-40, .cls-41, .cls-42, .cls-43, .cls-44, .cls-45, .cls-46, .cls-47, .cls-48, .cls-49, .cls-50, .cls-51, .cls-52, .cls-53, .cls-54, .cls-55, .cls-56, .cls-57, .cls-58, .cls-59, .cls-60, .cls-61, .cls-62, .cls-63, .cls-64, .cls-65, .cls-66, .cls-67, .cls-68, .cls-69, .cls-70, .cls-71, .cls-72, .cls-73, .cls-74, .cls-75, .cls-76, .cls-77, .cls-78, .cls-79 {
        stroke-width: 0px;
      }

      .cls-2 {
        fill: #010533;
      }

      .cls-3 {
        fill: #ed7325;
      }

      .cls-4 {
        fill: #050d38;
      }

      .cls-5 {
        fill: #090e36;
      }

      .cls-6 {
        fill: #f9eece;
      }

      .cls-7 {
        fill: #f6f7f1;
      }

      .cls-8 {
        fill: #080e35;
      }

      .cls-9 {
        fill: #060928;
      }

      .cls-10 {
        fill: #080b2f;
      }

      .cls-11 {
        fill: #060a2e;
      }

      .cls-12 {
        fill: #01002a;
      }

      .cls-13 {
        fill: #050831;
      }

      .cls-14 {
        fill: #080b36;
      }

      .cls-15 {
        fill: #043365;
      }

      .cls-16 {
        fill: #090f35;
      }

      .cls-17 {
        fill: #060b36;
      }

      .cls-18 {
        fill: #f9faf0;
      }

      .cls-19 {
        fill: #04062b;
      }

      .cls-20 {
        fill: #0b1132;
      }

      .cls-21 {
        fill: #465a6a;
      }

      .cls-22 {
        fill: #050827;
      }

      .cls-23 {
        fill: #f8f9f2;
      }

      .cls-24 {
        fill: #010026;
      }

      .cls-25 {
        fill: #053365;
      }

      .cls-26 {
        fill: #01017b;
      }

      .cls-27 {
        fill: #05062a;
      }

      .cls-28 {
        fill: #02002a;
      }

      .cls-29 {
        fill: #101338;
      }

      .cls-30 {
        fill: #010025;
      }

      .cls-31 {
        fill: #090d30;
      }

      .cls-32 {
        fill: #0b0f2f;
      }

      .cls-33 {
        fill: #05092e;
      }

      .cls-34 {
        fill: #000025;
      }

      .cls-35 {
        fill: #f9f9f0;
      }

      .cls-36 {
        fill: #090e32;
      }

      .cls-37 {
        fill: #121638;
      }

      .cls-38 {
        fill: #fdfefc;
      }

      .cls-39 {
        fill: #0c1233;
      }

      .cls-40 {
        fill: #f4f4e6;
      }

      .cls-41 {
        fill: #090d2a;
      }

      .cls-42 {
        fill: #040c3d;
      }

      .cls-43 {
        fill: #080d34;
      }

      .cls-44 {
        fill: #f8f8ee;
      }

      .cls-45 {
        fill: #010024;
      }

      .cls-46 {
        fill: #00002d;
      }

      .cls-47 {
        fill: #010737;
      }

      .cls-48 {
        fill: #090f33;
      }

      .cls-49 {
        fill: #0a1036;
      }

      .cls-50 {
        fill: #f9eecd;
      }

      .cls-51 {
        fill: #010223;
      }

      .cls-52 {
        fill: #0b1233;
      }

      .cls-53 {
        fill: #060d34;
      }

      .cls-54 {
        fill: #d6c41d;
      }

      .cls-55 {
        fill: #01032e;
      }

      .cls-56 {
        fill: #0c1133;
      }

      .cls-57 {
        fill: #00012f;
      }

      .cls-58 {
        fill: #0a1138;
      }

      .cls-59 {
        fill: #041239;
      }

      .cls-60 {
        fill: #06092f;
      }

      .cls-61 {
        fill: #f9efcf;
      }

      .cls-62 {
        fill: #1293d4;
      }

      .cls-63 {
        fill: #040629;
      }

      .cls-64 {
        fill: #070b2b;
      }

      .cls-65 {
        fill: #040934;
      }

      .cls-66 {
        fill: #20436f;
      }

      .cls-67 {
        fill: #040e33;
      }

      .cls-68 {
        fill: #000f45;
      }

      .cls-69 {
        fill: #060b34;
      }

      .cls-70 {
        fill: #030426;
      }

      .cls-71 {
        fill: #f9eecf;
      }

      .cls-72 {
        fill: #05082b;
      }

      .cls-73 {
        fill: #053364;
      }

      .cls-74 {
        fill: #03057c;
      }

      .cls-75 {
        fill: #0b1036;
      }

      .cls-76 {
        fill: #070e38;
      }

      .cls-77 {
        fill: #070933;
      }

      .cls-78 {
        fill: #070c35;
      }

      .cls-79 {
        fill: #0a0e2f;
      }
    </style>
  </defs>
  <path class="cls-66" d="M5.15,234.72c2.64-12.31,10.93-19.25,23.54-19.38,3-.03,3.47-.58,2.81-3.66-7.54-35.44-14.95-70.92-22.24-106.41-2.31-11.23,4.69-22.06,15.81-24.76,43.19-10.47,86.41-20.85,129.6-31.31,7.1-1.72,13.13.45,18.19,5.16,2.28,2.12,3.01,1.91,4.75-.43,14.29-19.19,31.95-34.28,54.11-43.77,18.52-7.93,37.98-11.27,57.93-9.84,34.2,2.46,63.12,16.54,86.47,41.81.99,1.08,2.07,2.08,3.11,3.11,2.29.7,3.45,2.66,4.77,4.4,11.52,15.18,19.81,31.93,24.05,50.55.86,3.77,2.45,3.87,5.56,2.83,18.69-6.28,36.49-4.47,53.08,6.46,2.5,1.65,4.1,1.24,6.07-.76,4.24-4.31,8.73-8.34,15-9.47,19.19-9.37,44.72-8.38,63.18,6.75,15.14,12.41,24.06,28.34,23.5,48.33-.64,22.82-11.44,40.04-30.68,52.1-.35.22-.65.51-.98.77-1.57,3.04-4.38,3.43-7.3,3.65,7.16-.41,14.34,1.09,21.57.45,6.59.12,13.19.21,19.78.38,14.53.36,24.14,10.13,24.15,24.51,0,7.63-.44,15.3.1,22.89,1.02,14.31-8.78,27.02-26.9,26.35-1.32-.05-2.64-.1-3.96-.15-1.14,1.44-.55,3.12-.55,4.67-.04,24.82-.1,49.64.03,74.46.02,4.12-.99,8.14-.75,12.25-.5,3.4-4.17,6.38-3.53,9.1.66,2.77,5.04,4.02,7.4,6.49,7.95,8.3,9.77,18.79,4.84,29.07-2.24,4.66-4.98,9.08-8.54,12.75-2.71,2.8-2.57,4.29.22,6.88,11.67,10.79,16.01,24.87,15.53,40.13-.86,27.75-21.29,49.87-48.66,54.39-17.31,2.86-33.83,1.24-49.44-7.09-1.99-1.06-3.29-1.01-4.9.79-3.54,3.94-8.24,5.39-13.45,5.39-20.13,0-40.25,0-60.38,0-5.26,0-10.18-1.31-14.43-4.49-1.59-1.19-2.7-1.73-4.44-.1-2.63,2.46-5.97,3.63-9.55,4.08-8.05.99-16.19,1.22-24.14.07-11.96-1.74-19.58-11.16-19.98-23.25-.03-1.02,0-2.04,0-3.56-9.7,3.53-19.16,3.24-28.88.16-.02,5.78-.97,11.16-3.94,16.02-4.15,6.78-10.41,10.66-18.09,10.91-9.87.31-20.01,1.73-29.42-3.03-1.26-.64-2.21-.02-3.28.53-3.86,1.97-7.96,2.8-12.31,2.71-6.17-.12-12.34-.02-18.51-.03-11.36-.01-18.71-5.05-22.01-15.86-1.11-3.64-2.75-5.02-6.32-4.4-.14.02-.3.02-.44,0-6.35-.77-10.93,0-13.01,7.81-2,7.48-8.67,11.62-16.35,12.09-10.66.65-21.39,1.14-32.05-.38-4.15-.59-7.51-2.63-9.93-5.9-1.48-2.01-2.46-2.04-4.57-.86-24.81,13.97-50.14,14.04-75.21,1.26-22.67-11.55-35.89-30.57-39.84-55.68-3.11-19.83-1.11-39.12,8.03-57.32,3-5.97,7.08-11.13,11.9-15.71,1.91-1.81,3.97-3.46,6.85-5.95-11.98-1.71-19.43-7.08-22.19-17.84-1.4-46.29-.23-92.58-.61-138.87,0-.73,0-1.47-.19-2.18Z"/>
  <path class="cls-26" d="M5.15,234.72c1.09,1.61.59,3.43.59,5.15.03,42.31.08,84.63-.09,126.94-.01,3.01,1.91,5.94.3,8.97-.52-1.97-1.1-3.89-1.1-6,.05-44,.04-88,.05-132.01,0-1.02.16-2.03.25-3.05Z"/>
  <path class="cls-74" d="M568.97,376.65c-1.88-3.78.36-7.45.33-11.21-.18-25.12-.11-50.23-.03-75.35,0-1.6-.95-3.55.98-4.82-.05,27.29-.11,54.57-.11,81.85,0,3.24-.13,6.43-1.17,9.52Z"/>
  <path class="cls-62" d="M377.86,186.17c-9.04,13.22-19.65,24.84-33.5,33.21-6.34,3.83-12.62,6.46-20.58,5.91-14.38-.99-27.99,2.77-40.09,10.81-3.44,2.29-6.92,2.84-10.77,2.66-38.62-1.81-66.89-21-87.91-52.35-.65-.97-1.32-1.92-1.98-2.88-5.56-7.66-8.45-16.5-11.15-25.41-3.62-11.95-4.93-24.23-4.18-36.65.26-4.26.41-8.67,2.2-12.73,3.06-13.02,7.02-25.69,14.02-37.23,24.38-40.15,60.26-59.25,106.88-56.09,51.37,3.47,94.49,44.47,102.13,95.21.13.85.48,1.67.72,2.5,1.97,7.46,1.79,15.13,1.28,22.66-1.03,15.18-5.31,29.57-12.33,43.1-1.34,2.57-2.64,5.2-4.74,7.29Z"/>
  <path class="cls-50" d="M300.93,468.38c-2.1-3.84-4.2-7.68-6.31-11.52-.79-.23-1.03-.96-1.48-1.53-.82-1.03-.66-3.41-2.6-2.83-1.41.42-.82,2.33-.81,3.58.2,17.75-.77,35.49-.5,53.25.1,6.41-2.34,8.81-8.63,8.84-4.4.02-8.81.04-13.21,0-5.12-.05-8.36-2.62-8.43-7.55-.19-13.64-.36-27.29.12-40.94.06-1.75.21-3.51.21-5.26.01-19.96.01-39.92,0-59.88,0-2.05-.23-4.14,1.37-5.81.87-.88,1.74-1.75,2.6-2.63,1.68-1.05,3.57-1.31,5.48-1.32,6.6-.05,13.2-.08,19.8.02,1.97.03,4.05.13,5.56,1.78,6.48,9.84,11.08,20.7,16.73,30.98,2.87,5.22,5.4,10.63,8.28,15.84,1.3,2.35,3.04,3.82,4.92.21,7.54-14.41,15.14-28.8,22.72-43.19.97-4.06,3.65-5.72,7.71-5.69,6.91.07,13.81.04,20.72,0,1.49,0,2.92.2,4.31.73,4.14,1.69,4.09,5.42,4.07,8.91-.06,15.25.02,30.5-.3,45.75-.4,19.51-.08,39.03-.12,58.55,0,2.29.51,4.78-1.71,6.51-.58.55-1.15,1.09-1.73,1.64-1.38,1.43-3.15,1.35-4.93,1.34-4.41-.01-8.81.03-13.22-.01-6.45-.06-8.6-2.39-8.84-8.73-.57-14.96.39-29.91.04-44.87-.1-4.31-.85-8.59.1-13.28-2.7.71-2.46,3.22-4.1,3.91-6.14,9.97-11.06,20.61-16.61,30.9-.98,1.81-1.97,3.54-3.72,4.71-4.91,1.73-9.87,1.15-14.8.22-1.3-.24-2.39-1.25-2.97-2.48-3.19-6.75-7.1-13.15-9.73-20.17Z"/>
  <path class="cls-50" d="M105.47,373.84c-.5-.24-.99-.49-1.49-.73-2.02-1.44-1.63-3.6-1.64-5.62-.01-14.66,0-29.33-.02-43.99,0-1.72.45-3.55-.86-5.06-1.1-1.64-2.83-1.34-4.41-1.34-11.17-.05-22.33-.07-33.5,0-5.18.03-6.21,1.02-6.24,6.22-.1,13.96,0,27.92-.05,41.88-.02,7.73-2.12,9.87-9.92,10.05-4.26.1-8.52.07-12.78,0-6.19-.09-8.79-2.4-9.64-8.48-.18-1.31-.11-2.64-.11-3.96,0-38.94,0-77.87,0-116.81,0-2.05.27-4.07.54-6.11.55-4.13,3.1-5.41,6.67-5.5,5.73-.14,11.46-.11,17.19-.02,5.74.09,7.98,2.31,8.03,8.09.1,12.49-.01,24.98.05,37.47.03,5.38.15,5.52,5.38,5.54,12.05.05,24.1.05,36.15-.01,1.27,0,2.68.43,3.71-.79,1.14-1.42.71-3.1.72-4.67.07-12.33,0-24.66.05-36.99.03-7.36,1.33-8.62,8.82-8.65,5.28-.02,10.57-.05,15.85.01,6.25.08,7.73,1.55,7.76,7.92.07,12.33.02,24.66.02,36.99,0,27.74,0,55.48,0,83.22,0,1.76.16,3.54-.14,5.28-.59,3.44-2.21,6.44-6.01,6.52-8.04.17-16.11.8-24.13-.43Z"/>
  <path class="cls-50" d="M468.69,233.89c2.64,1.51,3.78,3.85,3.75,6.82-.07,6.57-.18,13.15-.21,19.72-.01,2.58-1.74,3.84-3.6,5.05-1.33.92-2.84.47-4.26.47-12.14.04-24.28.01-36.42.04-1.44,0-2.93-.31-4.32.35h.04c-.83,5.95-.23,11.95-.34,17.92-.06,3,2.2,2.91,4.34,2.91,10.39-.02,20.78-.02,31.17,0,3.37,0,6.44.62,7.96,4.18l-.08-.2c1.52,5.45.5,11.01.6,16.51.2,10.7-.46,11.22-10.99,11.22-9.55,0-19.1.09-28.64-.05-3.16-.04-4.57.91-4.45,4.27.19,5.28.24,10.58-.02,15.86-.16,3.42,1.23,4.26,4.37,4.23,12.93-.11,25.85-.06,38.78-.04,7.55,0,8.94,1.43,8.94,8.99,0,5.14.05,10.28-.01,15.42-.06,5.06-2.76,8.11-7.75,8.14-23.65.13-47.3.11-70.95,0-1.99,0-4.16-.13-5.45-2.17-.03-.34-.21-.49-.56-.44-2.21-1.83-2.02-4.41-2.1-6.87-.23-6.6.39-13.18.41-19.77.07-34.17.02-68.35.06-102.52,0-1.56-.56-3.23.54-4.68.84-2.26,2.16-4.16,4.27-5.43,1.06-.73,2.27-.43,3.42-.44,22.71-.02,45.42-.02,68.13,0,1.14,0,2.36-.34,3.39.49Z"/>
  <path class="cls-50" d="M314.36,285.47c7.04,4.28,15.14,5.69,22.78,8.34,10.57,3.67,20.68,8,27.2,17.8,1.44,2.16,2.55,4.53,3.82,6.81,2.29,3.08,2.4,6.8,2.78,10.34.87,8.03-.28,15.83-3.66,23.24-3.63,7.34-8.84,13.24-15.81,17.58-1.7,1.99-4.02,2.78-6.45,3.34l.11-.12c-7.46,4.13-15.75,4.55-23.94,5.08-4.28.28-8.67.73-12.95-.43l.07.04c-9.79-1.37-19.47-3.12-28.31-7.9-1.25-.72-2.48-1.48-3.74-2.17-5.77-3.11-6.49-4.84-4.05-10.76,1.94-4.7,4.17-9.27,6.08-13.98,1.6-3.94,4.16-4.99,7.96-3.26,3.49.08,6.2,2.34,9.33,3.43,11.28,3.91,22.57,6.37,34.33,2.14,7.22-4.05,8.05-10.46,2.14-16.55-9.5-5.81-20.49-7.85-30.62-12.1-1.61-.68-3.23-1.28-4.66-2.31-8.1-4.68-15.82-9.77-20.25-18.48-6.15-10.4-4.86-29.1,1.34-37,3.36-5.82,8.08-10.34,13.57-14.1,6.4-5.06,14.14-6.92,21.83-8.22,12.82-2.16,25.56-1.19,37.91,3.27,1.67.6,3.24,1.3,4.69,2.29,10.52,6.35,10.54,3.17,5.94,17.04-1.28,3.85-2.83,7.61-4.21,11.42-.76,2.1-1.93,3.6-4.43,3.4-3.22.15-5.71-1.9-8.49-2.98-7.86-3.05-15.77-5.17-24.32-3.82-4.13.65-7.39,2.6-9.91,5.83-1.99,2.55-1.66,6.31.62,9.35.97,1.29,2.49,2.02,3.3,3.45Z"/>
  <path class="cls-50" d="M52.5,515.07c-13.3-6.37-23.44-15.88-29.44-29.53-1.09-2.48-2.11-4.99-3.16-7.49-4.75-16.07-4.86-31.97,1.76-47.62,5.4-11.51,12.87-21.26,23.74-28.16,7.37-5.47,15.87-7.81,24.82-8.54,13.3-1.08,26.23.37,38.23,6.77,1.13.6,2.52.88,3.11,2.25,6.57,5.25,6.72,5.99,2.45,13.23-2.14,3.64-4.37,7.22-6.47,10.89-1.88,3.28-4.3,4.61-7.89,2.64-11.5-6.15-23.25-7.31-35.33-1.73-4.31,1.8-7.21,5.16-9.77,8.88-3.58,7.3-5.31,14.93-5.28,23.15.03,6.99,2.66,12.99,5.27,19.12,2.02,3.48,4.93,5.98,8.53,7.71,6.33,2.85,12.81,4.98,19.91,4.24.58-.06,1.18.03,1.76-.02,9.58-.86,14.27-8.38,10.78-17.18-.61-1.53-1.81-1.75-3.19-1.77-4.95-.07-9.9.09-14.85-.09-.78-.17-1.59-.28-2.01-1.09-.91-8.52-3.09-17.13,1.66-25.28,1.29-.88,2.76-.88,4.23-.88,11.73,0,23.46-.01,35.19,0,1.61,0,3.23.06,4.68.91.89.85,1.78,1.7,2.67,2.54,1.27,2.63,1.02,5.45.85,8.19-.8,12.99-.25,26-.39,39-.02,2.29-.31,4.36-2.21,5.89-3.77,4.9-9.06,7.93-14.04,11.34-4.91,3.73-10.77,5.18-16.6,6.25-12.23,2.25-24.43,2.08-36.31-2.26-.98-.36-1.89-.75-2.72-1.38Z"/>
  <path class="cls-50" d="M236.77,274.02c5.96,3.77,10.27,8.97,13.25,15.31,2.1,3.97,3.03,8.28,3.04,12.7.09,21.73.02,43.46.05,65.19,0,3.13-.57,5.85-3.92,7.08-7.86,1.32-15.78.41-23.67.48-2.46.02-3.66-2.06-4.01-4.47-.22-1.56-.54-3.11-.9-5.11-3.79,3.52-7.76,6.37-12.03,8.77-8.08,4.43-16.89,4.48-25.68,3.93-5.71-.36-11.29-1.64-15.76-5.71-4.78-3.36-7.85-8.09-10.56-13.12-4.56-10.33-4.75-20.41,1.76-30.09,2.83-3.62,6.06-6.82,9.71-9.61.92-1.51,2.41-1.97,4.03-2.22,13.13-4.97,26.8-5.61,40.64-5.22,7.12.2,9.31-3.58,6.05-10.19-2.85-5.78-8.28-7.76-14.08-8.4-8.53-.95-16.94.17-25.06,3.06-.83.29-1.63.66-2.47.91-6.69,1.99-8.06,1.24-10.31-5.34-.41-1.19-.28-2.65-1.44-3.55-.19-.22-.46-.41-.55-.66-3.89-11.33-3.61-11.92,7.68-16.36,2-.78,4.01-1.53,6.01-2.3,4.22-2.32,9.01-2.33,13.56-2.88,13.2-1.59,26.24-.54,38.77,4.26,2.13.81,4.46,1.46,5.9,3.52Z"/>
  <path class="cls-50" d="M209.5,497.04c-.02-.6-.17-1.1-.91-1.11-11.14.46-22.29.21-33.43.13-3.65-.03-4.93,1.4-5.99,4.78-1.54,4.93-.91,10.65-4.96,14.73-2.19,1.42-4.66,1.62-7.18,1.62-5.87,0-11.74.04-17.6-.01-5.94-.06-7.62-2.34-5.75-8.1,2.91-8.92,6.05-17.77,8.84-26.72,8.3-26.57,17.49-52.85,25.54-79.51,1.7-5.64,3.6-7.05,9.51-7.09,7.48-.04,14.97.23,22.44-.11,3.88-.18,6.66,1.42,9.41,3.61,2.05.67,1.56,2.6,2.03,4.06,1.15,7,3.98,13.49,6.12,20.18,4.47,13.98,9.25,27.86,13.82,41.8,4.76,14.5,9.84,28.9,14.62,43.39,2.07,6.28.54,8.39-6.16,8.45-6.17.06-12.34-.01-18.51.02-3.72.02-5.91-1.51-7.06-5.24-1.42-4.62-2.03-9.48-4.07-13.9-.35-.25-.58-.58-.7-.99Z"/>
  <path class="cls-50" d="M465.18,441.94c.85,1.19,1.7,2.38,2.56,3.57,1.11,6.74.33,13.52.43,20.28.01,1.04-.69,1.87-1.52,2.52-.35-.07-.55.06-.58.41-.23.92-.96.94-1.7.93-10.89-.11-21.78.29-32.66-.21-.91.13-1.46.63-1.61,1.55.56,4.38.37,8.78.16,13.15-.16,3.51,1.02,4.61,4.46,4.56,10.54-.15,21.09-.08,31.64-.05,6.17.02,8.05,1.95,8.07,8.18.02,4.25-.05,8.5.02,12.74.06,3.65-1.12,6.59-4.34,8.53-21.25.13-42.5.02-63.75.04-.98,0-2.08.33-2.89-.59h.23c-3.07-1.33-4.2-3.8-4.2-7.02.01-36.09,0-72.17.03-108.26,0-4.55,2.55-7.48,6.82-7.49,20.68-.08,41.37-.08,62.05-.02.48,0,.82.27,1.21.46,1.16.86,2.32,1.72,3.48,2.58,3.08,4.02,1.57,8.68,1.62,13.06.02,2.01-.26,4.07-.27,6.12-.04,5.17-1.92,7.21-7.08,7.26-10.25.09-20.51.02-30.76.03q-5.78,0-5.79,5.82-.03,10.93,10.88,10.93c6.3,0,12.6-.02,18.9.02,1.57.01,3.26-.35,4.61.89Z"/>
  <path class="cls-50" d="M520.23,425.13c-4.38,4.33-4.02,8.53,1.05,11.76,6.71,4.27,14.41,6.27,21.68,9.21,7.6,3.07,14.42,7.04,19.58,13.53,4.86,5.1,5.73,11.73,6.04,18.18.37,7.57-.64,15.11-5.55,21.47-6.01,9.72-15.22,14.94-25.74,18.35-13.48,3.98-26.62,2.71-39.5-2.56-5.03-3.15-11.22-4.49-14.96-9.63-1.25-2.61.18-4.85,1.17-7.03,2.12-4.67,4.58-9.17,6.8-13.79,1.47-3.07,3.59-3.36,6.5-2.16,6.32,2.61,12.36,6.01,19.22,7.15,4.04.67,8.13,1.25,12.17.16,3.62-.98,7.05-2.39,7.73-6.75.64-4.05-1.19-7.06-5.58-9.4-4.79-2.55-9.98-4.09-15.02-6.01-1.37-.52-2.77-.95-3.92-1.91-7.75-4.04-15.58-7.97-20.54-15.67-.78-1.22-1.57-2.43-2.36-3.64-5.04-11.78-4.64-23.28,1.76-34.48,2.57-4.12,5.96-7.47,9.74-10.45,6.34-5.27,13.99-7.09,21.87-7.84,12.42-1.18,24.17,1.34,35.11,7.45.53.3.92.71,1.23,1.21,3.74,2.34,4.26,5.49,2.65,9.42-1.59,3.9-3.14,7.8-5.29,11.44-3.2,5.42-4.24,5.7-9.69,2.78-.9-.48-1.83-.9-2.75-1.35-2.97.03-5.49-1.66-8.33-2.19-5.41-1.01-10.36.15-15.08,2.77Z"/>
  <path class="cls-50" d="M548.06,372.34c-1.12.9-2.07,2.07-3.61,2.33-6.88-.5-13.78-.09-20.67-.22-4.84-.09-7.21-2.23-7.73-7.1-.19-1.75-.09-3.52-.09-5.28,0-29.2,0-58.4,0-87.61,0-2.2.16-4.4-.27-6.58-.23-.49-.52-.95-.86-1.36-5.94-1.18-11.93-.26-17.9-.51-3.07-.13-6.15.03-9.23-.06-4.14-1.54-5.54-4.59-5.36-8.89.23-5.37.08-10.75.05-16.13-.02-3.19,1.16-5.61,4.2-6.92l-.23-.05c1.15-.99,2.53-.54,3.8-.54,27.99-.03,55.97-.04,83.96.02,1.3,0,2.95-.88,3.91.89,1.63.91,2.48,2.5,3.5,3.94,1.07,7.37.44,14.78.33,22.16-.03,2.13-1.55,4.07-3.96,4.76-4.57,1.62-9.29.53-13.94.77-3.21.17-6.47.26-9.66-.03-3.62-.33-4.52,1.18-4.5,4.54.11,17.43.05,34.86.05,52.3,0,14.21.03,28.42-.03,42.63,0,2.42.48,5.04-1.74,6.95Z"/>
  <path class="cls-62" d="M58.34,218.46c-2.87-.5-5.55-1.11-8.26-1.41-2.55-.28-2.4-2.31-2.74-3.88-4.79-22.34-9.52-44.7-14.25-67.06-3-14.19-6-28.39-8.95-42.59-1.15-5.54.21-7.73,5.89-9.11,24.2-5.9,48.42-11.73,72.63-17.58,17.66-4.27,35.31-8.6,52.99-12.76,6.27-1.47,9.39.1,10.57,4.68.42,1.62.39,3.05-.53,4.61-2.77,4.69-4.89,9.72-6.34,14.94-.76,2.74-2.36,3.66-4.82,4.26-35.47,8.55-70.92,17.14-106.38,25.74-7.05,1.71-8.9,4.62-7.45,11.79,5.86,29.01,11.74,58,17.61,87.01.08.39,0,.8,0,1.37Z"/>
  <path class="cls-3" d="M477.52,160.73c-.17,23.75-20.25,46.44-45.91,44.79-14.47-.93-25.87-7.56-34.18-19.52-.91-1.3-.89-2.18-.21-3.51,9.2-17.78,12.73-36.89,13.03-56.7.04-2.52,1.16-3.6,3.14-4.61,29.44-14.96,64.27,6.5,64.13,39.54Z"/>
  <path class="cls-54" d="M490.6,140.46c-2.6-5.24-4.94-10.64-8.74-15.18-1.37-1.64-.32-2.55.78-3.65,14.54-14.44,38.93-16.79,55.88-4.95,15.8,11.03,22.69,26.57,18.98,45.4-3.65,18.54-15.33,30.89-34.06,35.01-12.39,2.72-24.14-.02-34.53-7.73-1.9-1.41-2.1-2.51-1-4.6,2.54-4.82,3.95-10.06,4.85-15.43,3.99,3.04,7.76,6.36,11.81,9.32,6.7,4.8,20.01,3.89,26.27-1.81,2.51-2.55,4.81-5.29,7.25-7.9,1.58-4.31,1.9-8.79,1.67-13.31-.2-3.87-1.56-5.16-5.45-5.24-4.67-.1-9.34-.05-14.01-.02-5.12.03-5.69.69-5.4,5.93.04.74.18,1.44.56,2.08.39.54.85,1,1.41,1.37,1.8.94,3.74.42,5.61.6,1.76.17,3.68.16,4.2,2.36.51,2.16-.7,3.68-2.38,4.77-4.67,3.01-9.63,2.95-14.69,1.16-.96-.34-1.81-.96-2.84-1.12-1.25-.34-2.1-1.11-2.52-2.35-1.03-3.05-2.52-5.93-3.01-9.17-1.45-9.57,2.64-16,11.91-18.66,1.27-.36,2.51-.84,3.8-1.12,3.44-.37,5.8,1.46,7.99,3.8,2.63,2.81,7.33,2.76,10.06.03,1.39-1.39.77-2.69-.15-3.92-3.57-4.79-8.19-7.92-14.21-8.72-11.35-1.51-20.94,1.31-27.69,11.2-.57.84-1.22,1.68-2.35,1.85Z"/>
  <path class="cls-50" d="M490.6,140.46c6.84-12.14,17.46-16.13,30.75-14.08,6.77,1.04,11.68,5.06,15.46,10.55,1.3,1.89,1.08,3.63-1.35,4.52-2.05.75-4.09,1.53-6.17,2.16-1.66.5-2.98.24-4.02-1.55-1.77-3.04-4.44-4.97-8.13-5.1-3.71.76-7.49,1.29-10.56,3.87-5.28,4.44-6.64,14.47-2.88,21.46.47.88,1.47,1.5,1.29,2.69.32.81.87,1.38,1.69,1.68,5.49,3.01,11.06,4.02,16.85.75,1.17-.66,2.4-1.35,2.73-2.66.48-1.89.77-3.72-2.36-3.77-2.8-.04-5.72.92-8.42-.64.05-.35-.09-.55-.42-.63-1.91-2.6-.73-5.51-.72-8.27,0-1.22,1.29-1.82,2.61-1.82,6.29-.01,12.58,0,18.87,0,1.88,0,3.45,1.06,3.67,2.58.86,6.12,1.68,12.32-1.64,18.09-1.64,2.87-4.13,4.95-6.6,7.05-5.5,5.76-21.81,6.69-27.26,1.79-4.11-2.86-8.6-5.27-11.24-9.8,1.37-8.74,1.02-17.38-1.48-25.91-.28-.97-.45-1.98-.68-2.97Z"/>
  <path class="cls-6" d="M117.72,115.26c3.12,4.99,2.77,10.91,4.36,16.31.7,2.37.81,4.9,1.51,7.27.79,2.69.04,4.54-2.3,5.89-6.82,2.13-13.84,3.42-20.8,4.98-3.28.73-4.96-.63-5.68-3.72-1.71-7.35-2.9-14.82-4.72-22.15-.46-1.85.62-3.4,2.19-3.85,7.82-2.23,15.71-4.19,23.72-5.61.7-.12,1.48-.04,1.73.89Z"/>
  <path class="cls-6" d="M84.59,152.63c-7.46,1.79-14.91,3.59-22.37,5.36-3.05.72-4.63-.63-5.3-3.59-.86-3.8-1.09-7.74-2.62-11.38-1.45-3.06-1.81-6.38-2.21-9.67-.34-2.75.91-4.36,3.68-5.02,6.79-1.63,13.63-3.09,20.37-4.92,3.26-.88,4.89,1.16,5.48,3.63,1.72,7.23,3.22,14.52,4.45,21.85.24,1.43.1,2.93-1.48,3.74Z"/>
  <path class="cls-6" d="M93.88,190.51l-2.74,2.62c-6.86,2.65-14.17,3.54-21.25,5.35-2.52.65-4.24-.76-4.92-3.24-1.98-7.21-3.02-14.63-4.83-21.88-.68-2.73,1.42-4.2,3.58-4.76,7.07-1.84,14.17-3.58,21.35-4.98,2.22-.43,4.21.61,4.58,2.52,1.54,7.88,3.97,15.6,4.67,23.64.02.25-.23.51-.43.74Z"/>
  <path class="cls-6" d="M105.41,188.83c-.56-.62-1.12-1.25-1.67-1.87-2.35-7.36-3.48-15-5.16-22.51-.58-2.61,1.04-4.31,3.4-4.84,6.81-1.54,13.55-3.37,20.4-4.76,3.34-.68,4.91.9,5.66,3.88,1.67,6.64,2.9,13.37,4.28,20.07.6,2.91-.26,4.97-3.16,5.8-6.89,1.96-13.91,3.42-20.9,4.97-1.03.23-2.04.07-2.85-.74Z"/>
  <path class="cls-6" d="M152.17,219.92c-.86-.14-1.56-.23-1.78-1.43-1.4-7.57-2.84-15.12-4.44-22.65-.68-3.22.18-5.09,3.59-5.49.42-.05.84-.47,1.23-.42,5.56.75,11.48-6.92,16.47-.17,3.48,4.71,7.44,9.32,9.52,15,.86,1.71,1.26,3.52,1.41,5.43.17,2.18-.66,4-2.66,4.52-7.72,1.99-15.33,4.49-23.33,5.21Z"/>
  <path class="cls-71" d="M152.89,135.75c-4.66,2.99-10.2,3.05-15.32,4.5-2.15.61-3.24-1.28-3.63-3-1.64-7.23-3.1-14.5-4.66-21.75-.3-1.41.45-2.51.85-3.73,2.22-2.91,5.81-2.22,8.73-3.2,3.84-1.29,7.9-1.91,11.85-2.86,3.43-.82,4.87.54,4.27,3.86-1.57,8.67-1.72,17.44-2.09,26.19Z"/>
  <path class="cls-6" d="M94.83,202.99c4.1,4.08,3.21,9.65,4.32,14.61.34,1.52-1.39,1.21-2.19,1.54-5.76,2.39-9.71,6.37-10.94,12.59-.37,1.87-1.54,2.6-2.93,2.71-3,.23-6.11.92-9-.67-1.07-.46-1.49-1.44-1.67-2.43-1.08-5.9-2.48-11.73-3.72-17.59-.53-2.5.11-4.92,2.38-5.51,7.84-2.05,15.54-4.84,23.75-5.24Z"/>
  <path class="cls-61" d="M109.89,216.68c-.07-2.71-.77-5.28-1.61-7.82-1.05-1.12-1.06-2.66-1.42-4-.76-2.82.36-4.95,3.25-5.73,7.07-1.92,14.21-3.54,21.33-5.24,2.97-.71,4.15,1.42,4.55,4.05,1.57,5.78,2.59,11.67,3.66,17.54.72,3.95-.2,4.6-4.07,3.62-7.15-1.81-14.45-1.56-21.74-1.64-1.31-.02-2.93.94-3.96-.77Z"/>
  <path class="cls-40" d="M102.77,284.96c-1.37,1.65-3.24,1.77-5.2,1.77-11.46-.02-22.92.02-34.38-.02-5.29-.02-7.12-1.86-7.14-7.17-.04-12.64,0-25.27-.02-37.91,0-5.38-.69-6.03-6.16-6.05-5.73-.02-11.46-.01-17.19,0-6.11.01-6.62.49-6.62,6.47,0,27.62,0,55.25,0,82.87,0,13.81-.01,27.62,0,41.44,0,5.89,1.72,7.61,7.56,7.64,5.14.03,10.29.13,15.43-.03,5.5-.18,6.97-1.82,6.98-7.23.01-14.4,0-28.8.01-43.2,0-6.33,1.43-7.72,7.77-7.72,11.46,0,22.92-.04,34.38.06,1.28.01,3.56-1.14,3.61,1.75-12.73-.09-25.47-.05-38.2-.03-4.85,0-5.33.54-5.38,5.23-.05,5.27.11,10.54-.08,15.81-.77,8.97-.15,17.97-.35,26.95-.04,1.59.06,3.19-.1,4.78-.44,2.66-2.25,4.4-4.63,4.69-8.11,1.02-16.26,1.47-24.37-.2-2.44-1.39-3.65-3.62-4.22-6.27-1.01-.97-.58-2.21-.59-3.33-.02-40.62-.02-81.23,0-121.85,0-1.14-.35-2.36.5-3.39.83-2.45,1.77-4.83,4.28-6.11,8.22-.86,16.44-.93,24.66.05,1.94.91,3.31,2.42,4.42,4.2.89,1.34.48,2.85.46,4.27-.12,13.6.35,27.2-.23,40.8.14.9.65,1.43,1.56,1.54,13.82-.48,27.64-.29,41.46-.1.18.06.36.11.55.14.44-.29.85-.25,1.23.13Z"/>
  <path class="cls-6" d="M160.46,176.47c-5.42,1.27-10.68,3.27-16.29,3.7-2.39-.21-2.51-2.26-2.82-3.84-1.35-6.83-2.85-13.62-4.33-20.42-.52-2.4.13-3.93,1.95-5.24,3.68-.81,7.37-1.55,11-2.53,2.98-.8,4.58.47,5.1,3.15,1.43,7.41,3.24,14.69,5.84,21.78.4,1.09,1.29,2.49-.45,3.4Z"/>
  <path class="cls-25" d="M391.14,373.55c1.94,1.2,4.04,1.43,6.3,1.43,23.2-.05,46.41-.03,69.61-.04,5.61,0,7.8-2.26,7.83-8.04.03-5.14.01-10.28,0-15.42,0-6.35-1.2-7.54-7.76-7.55-13.22-.03-26.44-.14-39.65.06-3.66.06-5.05-1.04-4.9-4.71.22-5.28.33-10.58.06-15.85-.2-4.08,1.36-5.48,5.33-5.41,10.57.19,21.15.1,31.72.17,5.79.04,7.25-1.3,7.23-7.19-.02-6.6-.15-13.21-.23-19.81,1.58.77,1.11,2.25,1.12,3.49.04,5.88.06,11.75,0,17.63-.05,5.19-1.95,7.04-7.27,7.05-10.58.03-21.15.13-31.73-.06-3.72-.07-5.4.92-5.15,4.94.29,4.68.23,9.4,0,14.09-.14,3.05.83,4.07,3.96,4.03,13.07-.15,26.15-.07,39.22-.05,6.77,0,8.92,2.15,8.93,8.85,0,5.29,0,10.58-.02,15.86-.03,6.61-2.96,9.59-9.73,9.61-21.15.05-42.31.03-63.46.02-3.21,0-6.46.38-9.57-.89-1.06-.43-1.7-1.09-1.89-2.2Z"/>
  <path class="cls-44" d="M102.77,284.96c-.41-.04-.82-.09-1.23-.13.33-.54.66-1.08.99-1.62-.36-15.23-.22-30.47-.07-45.7,2.1-3.01,4.88-4.31,8.64-4.17,6.01.21,12.04,0,18.06.07,4.61.05,7.04,2.33,7.51,6.88.14,1.31.03,2.64.04,3.96.24,40.36-.75,80.73-.44,121.09.02,2.04.21,4.12-.96,5.98-1.56,2.58-3.74,3.69-6.84,3.6-6.29-.17-12.59-.05-18.89-.04-1.46,0-2.94.14-4.1-1.04,6.96.06,13.92.17,20.88.15,6.43-.02,8.14-1.68,8.15-8.05.03-41.54-.01-83.08.07-124.63,0-4.1-1.4-5.92-5.64-5.79-6.31.2-12.63.17-18.93,0-3.95-.1-5.54,1.51-5.5,5.48.12,12.62.04,25.25.05,37.87,0,2.2.2,4.45-1.76,6.08Z"/>
  <path class="cls-18" d="M209.5,399.61c-11.44-5.55-23.58-1.61-35.37-2.51-3.39-.26-4.27,3.42-5.01,5.94-6.92,23.71-15.16,46.99-22.63,70.52-3.98,12.55-7.89,25.11-12.48,37.45-.89,2.4-.82,5.02,2.77,4.93,9.06-.24,18.17.93,27.18-.77-.2,1.99-1.85,2.02-3.24,2.39l.22-.07c-2.28,1.41-4.8.58-7.19.64-5.4.14-10.8.09-16.21.01-1.03-.01-2.41.67-3.04-.89-2.12-1.39-1.91-3.59-1.99-5.69,1.48-7.9,4.69-15.26,7.14-22.85,7.33-22.67,14.58-45.37,22.06-68,.67-2.04.57-4.35,2.08-6.1l-.12.12c1.09-4.69,2.98-9.14,4.09-13.84.88-3.7,4.25-6.1,8.13-6.12,8.8-.05,17.6,0,26.41-.03,2.15,0,4.07.35,5.38,2.27.56.57,1.12,1.14,1.68,1.71.26.16.37.35.32.56-.05.22-.12.33-.19.33Z"/>
  <path class="cls-42" d="M260.66,398.73c-.5,2.13-.95,4.24-.95,6.48,0,34.34-.05,68.67-.06,103.01,0,7.69,1.9,9.54,9.57,9.55,3.67,0,7.34.01,11.01,0,6.35-.03,8.58-2.28,8.59-8.78.03-18.64.03-37.27.04-55.91,0-1.28,0-2.56,0-4.52,3.47,2.26,4.14,5.63,5.76,8.32-2.21-.11-2.13-2.56-4.05-3.86,0,1.71-.02,3.07,0,4.43.33,17.89-1.38,35.74-.89,53.63.13,4.94-2.65,7.49-7.66,7.57-4.99.08-9.98.05-14.97.01-5.46-.04-9.06-3.1-8.99-8.62.18-14.21-.34-28.4.52-42.63.87-14.48.22-29.05.23-43.58,0-6.9-.06-13.8.06-20.7.03-1.57-.91-3.81,1.79-4.4Z"/>
  <path class="cls-35" d="M210.29,497.49c2.47.47,1.88,2.84,2.45,4.32,1.14,2.98,2.06,6.12,2.52,9.27.57,3.89,2.56,5.08,6.28,4.96,6.74-.2,13.5.01,20.25-.08,4.06-.05,4.99-1.37,3.7-5.19-4.54-13.43-9.25-26.8-13.72-40.26-7.05-21.22-13.96-42.48-20.95-63.72-.43-1.3-.85-2.52.19-3.7,2.08,2.4,2.35,5.53,3.31,8.37,2.56,7.57,4.75,15.27,7.8,22.68.45,3.08,1.68,5.92,2.65,8.84,7.22,21.68,14.34,43.4,21.82,65,.79,2.27,2.08,4.59.7,7.12-.53.57-1.07,1.14-1.6,1.7-.88,1.6-2.41,1.37-3.85,1.37-6.85,0-13.7.03-20.55,0-4.73-.03-6.77-1.65-7.85-6.42-1.08-4.75-3.4-9.22-3.16-14.26Z"/>
  <path class="cls-65" d="M57.64,338.75c.05-5.86.18-11.71.1-17.56-.03-2.49.86-4.16,3.34-4.17,13.17-.05,26.35.04,39.52.12.4,0,.8.32,1.2.49,1.37,1.45.94,3.27.94,4.97.02,14.74.03,29.47-.03,44.21,0,2.22.17,4.33,1.26,6.3-2.84-.82-2.09-3.21-2.1-5.12-.05-14.67-.14-29.34.06-44.01.06-4.1-.99-5.73-5.39-5.61-10.7.29-21.42.29-32.12,0-4.36-.11-5.91,1.06-5.82,5.63.27,13.93.1,27.87.09,41.81,0,7.41-1.51,9.85-8.73,10.49-7.06.63-14.29,1.31-21.34-.7-.08-.02-.16-.24-.15-.36.01-.13.13-.26.2-.38,7.26.02,14.53.08,21.79.05,3.07-.01,5.72-.83,6.49-4.35.9-7.83.14-15.69.41-23.53.09-2.76-.33-5.53.27-8.27Z"/>
  <path class="cls-29" d="M135.3,371.32c.26-43.26.54-86.53.74-129.79.03-5.6-2.13-7.56-7.79-7.63-5.72-.06-11.44.1-17.16-.09-3.37-.11-6.01.82-7.9,3.65-.44.37-.85.34-1.23-.09,1.79-3.34,4.6-4.6,8.35-4.51,6.32.15,12.64,0,18.96.05,5.27.05,7.87,2.59,7.88,7.84.02,41.88,0,83.76.01,125.65,0,1.8-.49,3.43-1.12,5.05-.03.07-.26.12-.38.1-.13-.03-.24-.15-.36-.24Z"/>
  <path class="cls-25" d="M548.06,372.34c1.13-1.86.9-3.93.9-5.96.06-31.83.2-63.67.08-95.5-.02-4.51,1.38-5.69,5.78-5.61,7.74.15,15.51.75,23.24-.41.32.17.42.33.32.49-.11.16-.21.24-.32.24-1.15,1.36-2.72.85-4.13.86-6.02.05-12.06.3-18.05-.08-4.4-.28-5.27,1.34-5.25,5.46.16,30.98.06,61.95.09,92.93,0,2.38-.23,4.68-1.08,6.89-.24.62-.63,1.44-1.58.69Z"/>
  <path class="cls-25" d="M465.18,441.94c-10.27-.02-20.55-.12-30.82,0-3.21.04-4.6-1.06-4.44-4.32.15-3.22.2-6.47,0-9.68-.22-3.4.92-4.65,4.5-4.58,11,.22,22.01.1,33.02.08,4.99,0,6.72-1.52,6.52-6.44-.26-6.39,1.14-12.87-.87-19.18,1.65-.81,1.54.6,1.81,1.47,2.2,7.13.19,14.28-.34,21.35-.25,3.37-4.04,4.57-7.62,4.55-10.28-.06-20.56.11-30.83-.09-3.41-.07-4.57.83-4.53,4.4.1,10.66-.06,10.66,10.51,10.66,6.61,0,13.22-.06,19.82.05,1.2.02,3.39-1.08,3.28,1.73Z"/>
  <path class="cls-25" d="M469.6,395.24c-20.84-.02-41.68-.08-62.53-.05-4.84,0-7.06,2.5-7.11,7.98-.09,9.69-.04,19.37-.05,29.06,0,25.54.04,51.08-.06,76.62-.02,3.64.9,6.56,3.85,8.75-4.23-.64-4.66-3.76-4.66-7.16,0-24.68,0-49.36,0-74.04,0-11.17-.01-22.33.02-33.5.02-6.15,2.42-8.6,8.45-8.6,20.27-.01,40.55,0,60.82,0,.42,0,.85.09,1.24.23.08.03.02.46.03.71Z"/>
  <path class="cls-77" d="M381.44,515.2c.98-1.56.99-3.32,1-5.07.15-35.23.35-70.46.36-105.7,0-3.19.71-7.34-4.05-8.57-.45-.47-.49-.95-.01-1.43,3.93,1.25,5.36,4.04,5.36,8.05-.06,35.78-.03,71.56-.1,107.34,0,2.03.7,4.73-2.55,5.38Z"/>
  <path class="cls-23" d="M165.4,288.44c.02-.15,0-.33.07-.43.15-.18.36-.32.54-.47.66,1.91,1.43,3.79,1.96,5.74.95,3.53,2.83,4.77,6.49,3.52,9.3-3.16,18.71-5.64,28.73-4.84,4.52.36,8.64,1.67,12.33,4.11,4.57,3.02,6.72,9.6,5.34,14.88-.54,2.09-2.02,2.24-3.71,2.24-6.02,0-12.03-.03-18.05,0-8.4.03-16.53,1.57-24.38,4.58-1.11.43-2.13,1.1-3.21.02,1.46-2.44,4.13-2.58,6.44-3.25,11.51-3.35,23.25-4.29,35.18-3.17,5.71.54,6.73-.57,5.92-6.31-.81-5.74-6.15-9.89-13.74-10.86-9.07-1.15-17.74.5-26.36,3.18-2.93.91-5.77,3.06-9.16,1.6-3.39-2.71-3.54-6.77-4.4-10.53Z"/>
  <path class="cls-48" d="M169.8,298.97c6.6-.37,12.43-3.78,18.89-4.78,7.72-1.2,15.31-1.8,22.83,1.19,5.72,2.28,8.14,6.52,8.59,12.43.27,3.51-.91,4.85-4.45,4.41-8.02-1.01-16.05-.99-24.08.09-6.93.93-13.77,2.17-20.05,5.48-1.16.53-2.32,1.07-3.48,1.6-.84-1.83.94-1.75,1.73-2.17,8.31-4.4,17.37-6.01,26.59-6.61,6.14-.4,12.33-.18,18.49,0,2.74.08,3.51-.92,3.52-3.56.02-7.08-5.77-11.79-14.73-12.42-10.03-.7-19.44,1.75-28.81,4.71-1.7.54-3.35.93-5.09.39-.08-.02-.15-.24-.14-.36.01-.13.13-.26.2-.39Z"/>
  <path class="cls-8" d="M105.41,188.83c8.42-.07,16.18-3.3,24.26-5.04,2.72-.58,2.51-3.04,2.11-5.04-1.34-6.71-2.92-13.38-4.27-20.09-.6-2.98-2.33-3.92-5.06-3.31-6.81,1.52-13.63,3.04-20.4,4.72-3.57.89-3.12,3.65-2.55,6.36,1.43,6.84,2.82,13.69,4.23,20.53-1.86-.03-1.45-1.8-1.65-2.66-1.47-6.25-2.53-12.59-4.05-18.83-.92-3.8.8-5.68,4.01-6.5,6.93-1.77,13.94-3.25,20.88-4.96,3.31-.81,4.79,1.24,5.4,3.7,1.84,7.5,3.47,15.07,4.91,22.66.48,2.54-1.46,4.13-3.73,4.73-7.2,1.89-14.44,3.67-21.69,5.35-.92.21-2.89.8-2.39-1.62Z"/>
  <path class="cls-16" d="M93.88,190.51c-.79-8.01-3.22-15.69-4.59-23.59-.41-2.37-2.25-3.32-4.67-2.74-6.8,1.6-13.61,3.18-20.4,4.85-3.02.75-4.14,2.23-3.15,5.75,1.69,6.02,2.58,12.27,3.86,18.41.99,4.74,2.3,5.5,7.04,4.39,6.38-1.5,12.78-2.96,19.17-4.44-2.4,3.04-6.21,2.28-9.33,3.35-3.42,1.18-7.12,1.52-10.62,2.49-3.8,1.06-6.18-.56-7.03-3.95-1.74-6.91-3.11-13.92-4.55-20.9-.69-3.35,1.06-5.44,4.12-6.21,7.06-1.78,14.19-3.31,21.26-5.03,2.06-.5,4.03.38,4.48,1.86,2.54,8.44,5.07,16.92,5.14,25.86,0,.05-.24.15-.35.13-.13-.02-.25-.14-.37-.22Z"/>
  <path class="cls-25" d="M389.49,239.26c-.05,28.43-.12,56.87-.16,85.3-.02,14.22.01,28.44-.04,42.65,0,2.1.23,4.06,1.3,5.88-3.3-1.63-3.05-4.79-2.91-7.59,1-19.9.72-39.8.75-59.71.03-20.96.01-41.92.04-62.88,0-1.27.18-2.55.29-3.82,0-.04.25-.1.36-.08.13.03.25.15.37.23Z"/>
  <path class="cls-25" d="M511.89,465.69c6.22,2.35,12.5,4.53,18.63,7.11,4.16,1.75,7.03,4.87,6.64,9.78-.33,4.13-3.65,6.76-9.22,7.89-7.34,1.48-14.1-.74-20.84-3.15-1.23-.44-2.44-.94-3.61-1.5-12.45-5.92-10.45-4.65-15.51,5.92-2.1,4.39-5.21,8.46-5.14,13.69-1.1-2.23-1.19-2.26-.34-4.67,2.14-6.1,5.39-11.68,8.34-17.39,1.32-2.55,3.55-2.97,6.35-1.74,6.52,2.88,12.83,6.39,20.03,7.45,4.36.64,8.72,1,12.98-.5,2.69-.95,5.06-2.22,5.53-5.52.55-3.84-1.03-6.58-4.23-8.39-4.86-2.74-10.18-4.38-15.39-6.29-1.53-.56-3.73-.37-4.21-2.69Z"/>
  <path class="cls-36" d="M163.81,414.61c-3.7,14.49-8.87,28.53-13.44,42.75-5.83,18.11-11.89,36.14-17.85,54.21-.35.6-.7,1.19-1.17,1.98-.83-1.96.49-3.3.99-4.81,9.83-30.15,19.66-60.3,29.45-90.46.45-1.38.49-2.91,2.02-3.66Z"/>
  <path class="cls-38" d="M516.06,266.53c1.97,1.22,1.1,3.19,1.1,4.81.06,31.1.04,62.19.04,93.29,0,8.23,1.18,9.24,9.38,9.44,5.96.14,11.96-.85,17.87.6-7.48.06-14.97.02-22.45.23-2.8.08-4.19-1.61-5.64-3.46-.67-.99-.67-2.17-.88-3.28-.1-32.44-.02-64.88-.04-97.33,0-1.45-.19-2.95.6-4.3Z"/>
  <path class="cls-25" d="M516.17,368.79c.07.88.13,1.77.2,2.65-2.31-1.66-1.77-4.15-1.78-6.42-.03-31.15-.09-62.3.05-93.45.02-3.91-.83-5.46-5.05-5.21-6.3.37-12.63.14-18.95.06-1.37-.02-2.97.68-4.08-.82.22-.35.48-.38.78-.09,8.33-.02,16.66-.05,24.99-.03,1.09,0,2.4-.42,3.1.96.81,1.52.4,3.17.41,4.75.03,30.93.02,61.86.03,92.8,0,1.6-.27,3.23.28,4.8Z"/>
  <path class="cls-25" d="M470.35,517.48c1.01-1.19,2.56-1.9,2.86-3.71,1.1-6.71.94-13.46.41-20.18-.24-3.11-2.61-4.15-5.7-4.13-11.17.1-22.34-.09-33.5.12-3.49.07-4.76-.96-4.55-4.48.29-4.68.17-9.39.22-14.09,1.52,4.11.67,8.38.65,12.56-.01,3.22.84,4.35,4.21,4.29,10.42-.2,20.85-.09,31.28-.06,6.43.01,8.67,2.29,8.69,8.77.01,4.55-.09,9.11.03,13.66.1,3.71-1.09,6.59-4.52,8.32-.27-.22-.37-.45-.3-.69.07-.25.15-.37.23-.37Z"/>
  <path class="cls-46" d="M24.38,240.02c.03,42.86.06,85.71.08,128.57-.3.28-.36,1.44-.93.65-.42-.58-.11-1.7-.11-2.58,0-41.51,0-83.01,0-124.52,0-.88,0-1.76.02-2.64,0-.1.15-.2.22-.29.24.27.48.54.72.81Z"/>
  <path class="cls-56" d="M247.31,515.11c.4-2.25-.3-4.31-1-6.4-8.12-24.04-16.22-48.08-24.3-72.13-.23-.68-.23-1.44-.34-2.16-.25-.49-.2-.94.16-1.36,4.5,10.61,7.5,21.74,11.26,32.6,4.86,14.04,9.46,28.18,14.17,42.27.79,2.35,1.5,4.71.78,7.22-.02.08-.23.16-.35.15-.13-.01-.26-.12-.39-.19Z"/>
  <path class="cls-47" d="M348.76,455.2c1.06-2.14,2.11-4.27,3.36-6.79,1.62,1.86,1.02,3.51,1.02,4.97.05,18.45.01,36.9.03,55.35,0,6.95,2.14,9.16,9.23,9,5.77-.14,11.62.94,17.31-.88-.03,2.62-2.08,1.75-3.35,1.77-5.43.1-10.86.1-16.28.02-5.21-.08-7.45-2.66-7.84-7.92-1.12-15.2.53-30.39.11-45.59-.12-4.18-2.36-8.35.24-12.49-2.5-.37-1.3,3.47-3.82,2.56Z"/>
  <path class="cls-5" d="M117.72,115.26c-4.23-1.04-7.89,1.27-11.81,2.05-4.14.81-8.26,1.72-12.33,2.81-2.11.56-3.36,1.59-2.64,4.47,1.63,6.49,2.66,13.13,4.01,19.69,1.05,5.11,2.1,5.62,7.25,4.6,6.39-1.26,12.54-3.57,19.08-4.15-.12,1.88-1.93,1.39-2.8,1.61-5.92,1.49-11.94,2.59-17.87,4.04-3.18.78-5.24-.11-5.96-3.27-1.77-7.8-3.45-15.61-5.05-23.44-.44-2.16.7-3.84,2.78-4.37,7.47-1.89,14.97-3.65,22.49-5.37,1.11-.25,2.4-.17,2.86,1.33Z"/>
  <path class="cls-67" d="M377.86,186.17c13.92-22.48,18.93-46.88,15.8-73.04.04-.14.05-.31.13-.42.15-.2.33-.37.5-.55.4,1.94,1.1,3.87,1.14,5.81.24,10.69.6,21.41-1.81,31.93-2.83,12.35-6.99,24.19-13.79,34.97-.43.69-.42,2.25-1.97,1.29Z"/>
  <path class="cls-53" d="M111.56,402.75c-21.97-11.52-44.02-12.14-66.15-.48-.64-.58-.31-1.07.23-1.37,11.5-6.51,23.87-9.35,37.01-8.09,8.85.85,17.63,2.36,25.55,6.83,1.35.76,3.14,1.1,3.36,3.1Z"/>
  <path class="cls-78" d="M84.59,152.63c2.29-3.93-.12-7.7-.52-11.5-.45-4.17-1.65-8.26-2.51-12.39-.76-3.62-2.2-5.68-6.6-4.39-6.13,1.8-12.4,3.15-18.67,4.41-3.47.7-4.2,2.65-3.62,5.68.55,2.85,1.1,5.71,1.65,8.56-.04.14-.03.32-.12.42-.16.18-.37.3-.55.45-.89-3.95-2.19-7.82-2.04-11.95.08-2.27,1.35-3.5,3.4-4.01,7.09-1.76,14.17-3.56,21.29-5.15,3.43-.77,5.35,1.39,6.05,4.37,1.64,6.96,3.1,13.96,4.46,20.98.35,1.82.51,3.98-2.2,4.5Z"/>
  <path class="cls-59" d="M169.9,108.75c-4.98,26.57.29,51.34,13.13,74.78-1.83.88-1.73-.92-2.14-1.7-6.84-13.01-11.46-26.63-13.05-41.39-1.17-10.85-.73-21.48,1.07-32.15.03-.21.27-.38.41-.56.19.34.39.68.58,1.02Z"/>
  <path class="cls-25" d="M249.19,374.3c2.67-1.81,3.54-4.35,3.53-7.52-.07-20.96-.04-41.93-.02-62.89,0-5.03-1.5-9.76-2.68-14.56,3.1,2.61,3.38,6.49,3.41,9.9.23,23.05.18,46.11.07,69.17-.01,2.67-.01,6.04-4.31,5.9Z"/>
  <path class="cls-17" d="M75.48,470.73c.57.16,1.14.31,1.71.47,5.29.47,10.59.41,15.89.03,2.46-.25,3.46.97,3.4,3.32-.04,1.61,0,3.21,0,4.82,0,9.11-1.18,10.59-10.39,11.84-8.14,1.1-15.95.09-23-4.57,4.4-.05,7.91,2.9,12.24,3.44,5.81.72,11.3.16,16.73-1.83,1.8-.66,2.69-1.8,2.83-3.9.78-11.58.84-11.42-10.75-11.67-2.88-.06-6.54,1.99-8.65-1.94Z"/>
  <path class="cls-34" d="M578.01,234.32c-.7-.17-1.4-.5-2.11-.5-29.85.03-59.7.08-89.56.13,1.18-1.67,2.94-.99,4.45-.99,27.53-.04,55.05-.05,82.58,0,1.59,0,3.62-.89,4.63,1.35Z"/>
  <path class="cls-25" d="M355.86,241.78c-19.51-7.62-39.04-8.39-58.57-.11-1.99.84-3.9,1.84-5.86,2.77-.77-1.81.98-1.77,1.77-2.17,13.39-6.79,27.52-8.82,42.4-6.95,5.69.71,11.18,1.91,16.5,3.89,1.37.51,3.39.45,3.76,2.57Z"/>
  <path class="cls-16" d="M558.71,402.27c-14.62-8.23-30.06-10.42-46.35-6.19-4.25,1.1-8.06,3.23-11.86,5.36-.91-.84-.13-1.27.46-1.62,18.16-10.63,39.81-8.98,57.5,1.07.54.3.87.79.25,1.38Z"/>
  <path class="cls-68" d="M121.25,445.49c-14.7-.01-29.4-.03-44.1-.04.7-2.12,2.51-1.73,4.09-1.74,11.7-.02,23.39.01,35.09-.03,1.79,0,3.42.48,5.04,1.08.08.03.14.25.12.37-.02.13-.15.25-.23.37Z"/>
  <path class="cls-25" d="M314.36,285.47c-3.65-1.89-5.99-4.83-5.76-9,.25-4.59,3.43-7.4,7.37-8.93,9.29-3.61,18.32-1.42,27.17,1.95,3.38,1.28,6.68,2.77,10.02,4.16-1.44,1.62-2.72.18-3.92-.33-8.63-3.68-17.3-7.03-27.01-6.03-2.98.31-5.8.87-8.18,2.68-5.19,3.91-5.55,8.07-1.25,12.96.68.77,1.5,1.42,1.56,2.55Z"/>
  <path class="cls-76" d="M236.77,274.02c-18.13-9.48-37.15-9.16-56.51-5.13-.56.12-1.14.16-1.72.23-.14-.03-.33-.02-.42-.11-.17-.16-.3-.37-.44-.56,3.67-1.52,7.61-1.8,11.45-2.43,15.04-2.45,29.7-1.13,43.83,4.75,1.55.64,3.49,1.06,3.8,3.25Z"/>
  <path class="cls-14" d="M152.89,135.75c-.82-8.78.04-17.47,1.61-26.1.4-2.19.44-4.34-2.42-3.58-7.31,1.95-14.97,2.54-21.96,5.69.27-1.54,1.33-2.01,2.75-2.35,5.65-1.34,11.25-2.93,16.92-4.21,4.5-1.01,6.44.31,5.8,4.28-1.37,8.52-1.94,17.06-1.68,25.67,0,.24-.1.6-.28.71-.16.1-.48-.06-.74-.11Z"/>
  <path class="cls-34" d="M468.69,233.89c-24.98-.02-49.96-.04-74.94-.06-.34-1.39.78-.88,1.28-.88,24.14-.03,48.28-.03,72.42-.02.41,0,.84.1,1.23.25.08.03,0,.46,0,.71Z"/>
  <path class="cls-33" d="M52.5,515.07c18.9,6.73,37.45,6.02,55.63-2.62.8.95-.08,1.33-.66,1.59-17.84,7.98-35.96,8.99-54.4,2.2-.49-.18-1.23-.37-.57-1.17Z"/>
  <path class="cls-4" d="M109.89,216.68c2.57.85,5.22.37,7.83.35,7.1-.04,14.18-.06,21.29,2.34.3-7.74-2.67-14.56-3.46-21.71.25-.42.5-.43.77-.02,2.35,6.15,2.95,12.71,4.26,19.09.51,2.49-.33,4.2-3.74,3.37-7.99-1.96-16.16-2.55-24.38-1.93-1.42.11-2.29.02-2.57-1.49Z"/>
  <path class="cls-43" d="M94.83,202.99c-7.47,1.76-14.95,3.5-22.42,5.27-2.27.54-3.76,1.84-3.19,4.36,1.59,7.05,2.31,14.31,4.87,21.14-1.86-.31-2.02-1.75-2.34-3.25-1.22-5.7-2.49-11.39-3.86-17.05-.63-2.58.43-4.8,2.44-5.53,7.82-2.83,15.96-4.5,24.16-5.85.11-.02.34.09.35.16.03.24,0,.49-.02.74Z"/>
  <path class="cls-63" d="M160.72,517.56c.96-.96,2.58-1.03,3.24-2.39,3.59-4.22,3.28-9.76,4.72-14.66,1.13-3.85,2.77-5.17,6.63-5.03,11.08.41,22.19-.49,33.27.45-3.98,1.43-8.08.51-12.12.61-7.03.18-14.07.2-21.1-.02-3.49-.11-5.01,1.29-5.62,4.6-.71,3.86-1.58,7.73-2.84,11.43-.93,2.73-2.31,5.58-6.17,5.01Z"/>
  <path class="cls-25" d="M466.79,291.36c-2.1-2.92-5.1-3.48-8.46-3.46-10.26.06-20.52-.13-30.77.02-3.6.05-5.15-1.11-4.76-4.82.59-5.56-.89-11.24.87-16.75.03,4.97.35,9.95,0,14.89-.34,4.59,1.46,5.71,5.78,5.6,10.22-.28,20.44-.13,30.67-.06,3.17.02,6.25.45,6.69,4.59Z"/>
  <path class="cls-19" d="M207.7,397.01c-2.26-1.45-4.71-1.91-7.41-1.86-7.44.13-14.89.03-22.33.05-6.27.01-8.06,1.53-10.03,7.42-1.36,4.05-1.83,8.44-4.23,12.12.29-5.76,2.66-10.98,4.61-16.24,1.03-2.78,3.81-4.24,7.09-4.22,9.19.05,18.39-.04,27.58.07,1.89.02,4.44-.48,4.72,2.66Z"/>
  <path class="cls-2" d="M122.17,501.11c1.42-2.28,1.84-4.74,1.82-7.44-.1-15.21-.06-30.42-.07-45.63,2.98,2.73,1.96,6.4,1.62,9.5-1.4,12.6-.31,25.2-.69,37.8-.12,4.1-.07,4.13-2.68,5.78Z"/>
  <path class="cls-45" d="M470.35,517.48c.02.35.05.7.07,1.06-21.28.03-42.57.07-63.85.08-1.13,0-2.41.3-3.1-1.05,22.29.28,44.59.45,66.88-.09Z"/>
  <path class="cls-13" d="M21.67,430.43c-5.54,15.69-5.82,31.57-1.76,47.62-1.59-2.07-3.22-5.93-3.41-11.29-.39-11.34-1.19-22.78,3.29-33.66.41-.99-.06-2.73,1.88-2.67Z"/>
  <path class="cls-37" d="M563.04,499.27c6.51-13.3,7.07-26.52-.49-39.65,1.83.11,2.33,1.63,2.92,2.91,5.47,11.85,5.21,23.65-.46,35.36-.35.73-.38,2.28-1.97,1.37Z"/>
  <path class="cls-58" d="M160.46,176.47c.46-.8.6-1.6.24-2.5-2.92-7.31-4.81-14.91-6.32-22.62-.54-2.77-1.73-3.54-4.59-2.63-3.43,1.09-7.06,1.57-10.61,2.32-.42.32-.8.28-1.15-.11,4.15-2.33,8.85-2.65,13.38-3.48,2.14-.39,3.76.84,4.15,3.02,1.35,7.62,3.2,15.1,6.04,22.32.51,1.29.82,2.95-1.13,3.69Z"/>
  <path class="cls-27" d="M210.29,497.49c1.41,5.29,2.88,10.57,4.2,15.88.68,2.73,2.81,4.1,5.05,4.16,8.19.24,16.4.05,24.6-.03.53,0,1.05-.45,1.58-.69.13,2.32-1.63,1.8-2.88,1.81-7.59.04-15.17.04-22.76.01-2.86-.01-5.37-1.13-6.25-3.9-1.85-5.78-4.07-11.5-4.32-17.68.26.15.53.3.8.44Z"/>
  <path class="cls-79" d="M329.89,344.98c-7.98,4.32-16.34,2.91-24.59,1.32-6.68-1.28-12.94-3.98-19.07-6.89,1.7-1.54,2.97.13,4.32.67,9.07,3.65,18.25,6.92,28.2,6.51,3.73-.15,7.43-1.06,11.14-1.62Z"/>
  <path class="cls-36" d="M167.14,372.19c12.58,7.28,25.67,6.59,38.99,2.53.82-.25,1.64-.5,2.46-.76-1.91,2.06-1.88,2.48-9.29,3.74-10.38,1.77-20.8,2.08-30.47-3.34-.77-.43-2.56-.36-1.68-2.18Z"/>
  <path class="cls-11" d="M54.55,478.92c-7.83-11.35-7.83-31.01,0-42.28.5.46.51,1.01.24,1.58-6.34,13.04-7.19,26.07,0,39.11.3.55.26,1.12-.24,1.58Z"/>
  <path class="cls-49" d="M136.32,197.63c-.26.02-.52.02-.77.02-.83-2.84-2.13-3.91-5.45-2.86-5.79,1.83-11.81,2.97-17.73,4.4-5.48,1.32-5.56,1.46-4.37,7.04.18.85.19,1.74.27,2.62-3.94-3.74-2.48-9.39,3.05-10.91,6.28-1.73,12.64-3.19,19.02-4.55,3.28-.7,5.87.18,5.98,4.24Z"/>
  <path class="cls-20" d="M221.83,433.06c-.06.45-.11.91-.16,1.36-4.19-10.22-7.13-20.87-10.65-31.32-.37-1.22-.42-2.59-1.52-3.49-.04-.3-.08-.59-.12-.89.87-.82,1.4-.12,1.6.54,3.51,11.3,7.95,22.31,10.86,33.8Z"/>
  <path class="cls-60" d="M497.8,515.06c12.94,4.3,26.09,5.49,39.5,2.56-1.86,1.57-3.16,2.17-9.43,2.68-9.81.8-19.41-.56-28.72-3.74-.5-.17-2.05,0-1.35-1.5Z"/>
  <path class="cls-52" d="M64.33,427.76c7.71-5.26,16.12-5.12,24.69-3.04,3.8.92,7.58,2.09,10.63,4.77-.97-.24-2-.33-2.89-.73-9.8-4.35-19.7-5.47-29.87-1.24-.76.32-1.71.17-2.57.24Z"/>
  <path class="cls-69" d="M152.17,219.92c6.8-1.58,13.6-3.15,20.39-4.75,4.9-1.16,5.57-2.3,4.53-7.36-.2-1-.24-2.03-.35-3.05.04-.14.05-.31.13-.42.15-.2.35-.35.52-.53,2.17,6.91,2.34,11.6-5.49,12.63-6.6.86-13.01,3.18-19.51,4.83-.37.09-.79-.04-1.18-.07.32-.42.63-.85.95-1.27Z"/>
  <path class="cls-32" d="M300.93,468.38c3.01,5.91,6.14,11.76,8.98,17.75,1.77,3.73,4.29,5.64,8.53,5.17,3.31-.37,6.7.49,9.99-.5-5.69,3.89-16.59,1.47-19.54-4.36-2.45-4.84-4.92-9.67-7.27-14.56-.5-1.05-1.95-2.05-.7-3.51Z"/>
  <path class="cls-25" d="M277.86,258.54c-6.21,12.12-6.08,24.48-1.34,37-2.37-2.1-3.58-4.24-4.24-10.89-.81-8.13-.47-16.24,3.25-23.84.55-1.11.99-2.08,2.33-2.27Z"/>
  <path class="cls-41" d="M296.76,314.02c9.14,3.27,18.31,6.45,27.4,9.85,2.83,1.06,5.61,2.41,7.87,4.56-.24.14-.6.46-.72.39-9.82-6.02-21.19-8.1-31.65-12.47-1.1-.46-1.94-1.53-2.9-2.32Z"/>
  <path class="cls-25" d="M490.76,411.89c-5.55,11.24-5.88,22.75-1.76,34.48-2.13-2-3.09-3.15-3.33-7.23-.49-8.45-1.15-17.03,2.78-25,.43-.88.14-2.96,2.3-2.26Z"/>
  <path class="cls-28" d="M101.97,237.37c.41.03.82.06,1.23.09-.99,8.05-.23,16.12-.42,24.19-.17,7.19-.17,14.38-.25,21.57-.82-.83-.66-1.88-.65-2.89.03-14.31.06-28.63.09-42.94Z"/>
  <path class="cls-12" d="M57.97,283.24c-.08-15.02-.15-30.05-.23-45.07,1.34-.3.93.75.93,1.31.02,13.92.03,27.84-.01,41.76,0,.67-.45,1.33-.68,2Z"/>
  <path class="cls-72" d="M308.23,377.44c12.52.25,24.97-.13,36.89-4.65-1.37,2.56-4.11,2.48-6.37,3.14-9.51,2.78-19.29,2.78-29.08,2.37-.49-.02-.96-.56-1.44-.86Z"/>
  <path class="cls-25" d="M423.62,266.35c.85-1.54,2.32-.9,3.51-.9,13.83-.03,27.66.02,41.49.04-.04,1.81-1.43.89-2.11.89-14.3.04-28.6,0-42.9-.03Z"/>
  <path class="cls-31" d="M367.28,351.99c3.56-11.11,4.73-22.28.88-33.58,2.03,2.01,2.68,2.85,3.36,9,.89,8.03-.13,15.96-2.91,23.6-.17.47-.13,1.7-1.32.98Z"/>
  <path class="cls-75" d="M138.03,150.92c.38.04.77.07,1.15.11-1.62,1.46-2.06,2.89-1.44,5.29,1.64,6.26,2.61,12.7,3.99,19.03.38,1.74.4,3.84,2.43,4.81-2.94,1.02-3-1.62-3.33-3.04-1.65-7.05-3.09-14.15-4.47-21.26-.35-1.82-.59-3.87,1.66-4.94Z"/>
  <path class="cls-1" d="M100.99,284.69c-13.82.49-27.64.31-41.46.1.67-.72,1.56-.71,2.45-.71,12.32,0,24.65-.01,36.97.02.68,0,1.36.38,2.04.58Z"/>
  <path class="cls-10" d="M158.33,328.99c-5.54,9.74-5.36,19.82-1.76,30.09-1.8-1.84-1.97-1.81-2.97-6.92-1.46-7.5-.88-14.83,2.75-21.72.39-.74.36-2.28,1.97-1.45Z"/>
  <path class="cls-25" d="M487.35,265.51c-.26.04-.52.07-.78.09-3.47-.5-4.52-3.08-4.6-5.99-.16-6.61-.18-13.22.02-19.82.09-2.81.87-5.6,4.59-5.78-2.83,2.18-4.05,4.95-3.85,8.62.27,4.78.25,9.59,0,14.37-.2,3.92,1.1,6.74,4.61,8.51Z"/>
  <path class="cls-64" d="M279.99,369.58c9.09,3.87,18.78,5.63,28.31,7.9-9.83.16-18.86-3.03-27.75-6.74-.48-.2-1.24-.37-.56-1.17Z"/>
  <path class="cls-70" d="M378.74,394.44c0,.48,0,.95.01,1.43-8.95-1.26-17.93-.48-26.89-.34-2.61.04-3.92,2.7-5.1,4.9-.19-4.59,2.86-6,6.57-6.06,8.47-.14,16.94.03,25.42.08Z"/>
  <path class="cls-55" d="M294.1,396.58c-10.25-1.87-20.54-1.12-30.83-.48,1.75-1.7,1.75-1.76,4.02-1.77,7.35-.03,14.69-.02,22.04,0,1.92,0,3.9-.02,4.78,2.24Z"/>
  <path class="cls-57" d="M431.7,469.45c9.88-.06,19.77-.1,29.65-.18,1.58-.01,3.21.32,4.7-.54-.39,1.2-1.34,1.42-2.43,1.42-10.27-.02-20.53-.04-30.8-.09-.38,0-.75-.4-1.13-.61Z"/>
  <path class="cls-25" d="M578.05,265.59c0-.24,0-.49,0-.73,2.63-1.59,3.51-4.03,3.49-6.96-.04-6.54-.03-13.08-.04-19.62,1.38-.37.92.74.92,1.27.04,6.6.09,13.2,0,19.79-.04,2.98-1.07,5.46-4.38,6.26Z"/>
  <path class="cls-22" d="M520.23,425.13c5.63-4.99,12.11-3.84,18.56-2.43,1.67.36,3.23,1.22,4.85,1.86-1.46,1.37-2.84.15-4.02-.36-6.66-2.89-13.02-1.31-19.39.94Z"/>
  <path class="cls-24" d="M53.32,233.96c-8.22-.02-16.44-.03-24.66-.05-.23-.49-.02-.93.43-.93,7.99-.03,15.98-.02,23.97,0,.11,0,.3.14.31.22.02.25-.02.51-.04.76Z"/>
  <path class="cls-30" d="M134.51,517.25c8.8.94,17.62.52,26.43.24-.39.99-1.24,1.12-2.14,1.12-7.29,0-14.57,0-21.86.02-1.08,0-2.04-.19-2.43-1.38Z"/>
  <path class="cls-51" d="M466.64,468.32c2.11-4.72.77-9.7,1.08-14.55.18-2.74.02-5.5,0-8.25.44-.32.93-.16.93.29.04,6.54.04,13.07.03,19.61,0,1.44-.5,2.55-2.05,2.91Z"/>
  <path class="cls-72" d="M345.01,372.91c2.15-1.11,4.3-2.23,6.45-3.34-1.22,2.91-3.64,3.51-6.45,3.34Z"/>
  <path class="cls-73" d="M285.81,199.34c-31.28.06-62.59-21.7-72.51-50.39-2.44-7.05-.76-12.2,4.54-13.99,4.93-1.67,9.38.49,11.46,6.02,4.12,11,10.57,20.17,20.01,27.28,30.34,22.84,74.38,14.15,92.74-18.34,1.74-3.08,2.93-6.38,4.07-9.71,1.99-5.81,5.68-8.19,10.5-6.88,4.68,1.26,6.91,5.94,5.15,11.87-3.01,10.13-8.27,19.1-15.26,26.98-15.99,18.02-36.47,27.13-60.69,27.17Z"/>
  <path class="cls-25" d="M269.31,96.01c-.42,5.43-1.6,11.55-6.08,16.5-6.03,6.66-15.13,6.67-21.22.06-8.28-8.99-8.85-26.79-1.17-36.31,6.77-8.4,18.16-7.24,24.23,2.45,2.67,4.27,4.31,10.55,4.24,17.3Z"/>
  <path class="cls-25" d="M342.47,92.12c-.67,6.64-1.65,13.16-6.47,18.3-6.26,6.66-15.11,6.57-21.22-.18-7.95-8.78-8.33-26.92-.77-36.08,6.44-7.8,16.3-7.6,22.61.31,4.16,5.21,5.33,11.29,5.85,17.65Z"/>
  <path class="cls-25" d="M93.08,471.23c-5.3,1.05-10.59,1.1-15.89-.03,5.3,0,10.59.02,15.89.03Z"/>
  <path class="cls-73" d="M190.03,335.61c3.21-3.44,7.65-4.06,11.87-4.65,4.45-.62,9.01-.42,13.53-.51,2.97-.06,4.5,1.36,4.67,4.46.31,5.55-.84,10.36-5.84,13.59-3.97,2.41-7.9,4.95-12.67,5.42-9.6.94-15.65-4.37-13.86-13.68.35-1.84,1.98-2.87,2.29-4.63Z"/>
  <path class="cls-39" d="M190.03,335.61c-.1,2.6-1.76,4.68-1.92,7.45-.47,8.3,7.13,11.05,12.89,10.37,3.92-.47,7.57-1.85,10.84-4.18.65-.46,1.6-.51,2.42-.75-5.37,4.88-11.5,7.27-18.78,5.52-9.18-2.21-11.89-11.45-5.45-18.41Z"/>
  <path class="cls-7" d="M189.88,471.01c-2.93,0-5.87.07-8.8-.02-3.26-.1-4.39-1.86-3.56-4.96,2.88-10.7,5.74-21.41,8.63-32.11.55-2.02,1.17-4.13,3.74-4.26,2.75-.13,3.2,2.19,3.74,4.13,2.95,10.54,5.91,21.07,8.69,31.65,1.14,4.34.02,5.52-4.52,5.57-2.64.03-5.28,0-7.92,0Z"/>
  <path class="cls-21" d="M516.17,368.79c-.87-.99-.67-2.2-.67-3.36-.02-33-.04-65.99-.05-98.99.2.03.41.06.61.09.09,14.34.24,28.67.25,43.01.01,19.75-.09,39.5-.14,59.25Z"/>
  <path class="cls-50" d="M443.88,160.84c0-6.58.11-13.16-.04-19.73-.09-3.72,1.26-5.58,5.13-5.19.44.04.88,0,1.32,0,7.89-.03,7.93-.02,7.81,7.71-.2,12.33-.54,24.67-.63,37-.02,3.49-1.51,4.35-4.76,4.68-5.34.55-8.69-1.28-11.44-5.95-3.93-6.67-8.61-12.89-13.99-19.16,0,6.16.06,12.32-.03,18.47-.03,2.21,1.07,5.38-1.93,6.11-3.48.85-7.28,1.22-10.75-.42-1.31-.62-1.35-2.11-1.32-3.5.26-13.65.53-27.31.7-40.97.03-2.8,1.2-3.77,3.94-4.04,5.45-.53,9.31.79,12.21,6.05,3.72,6.74,8.48,12.91,12.8,19.33l1-.39Z"/>
  <path class="cls-54" d="M537.86,170.29c2.38-5.44,1.28-11.19,1.45-16.82.07-2.26-1.43-3.41-3.68-3.42-6-.02-12,.02-17.99-.04-1.98-.02-3.12.71-3.03,2.77.11,2.31-.49,4.68.45,6.94-2.74-2.69-1.66-6.08-.97-8.92.66-2.73,3.73-1.57,5.78-1.62,5.13-.13,10.26.06,15.39-.08,2.8-.08,4.65,1.13,5.27,3.65,1.36,5.53.02,11-.92,16.43-.08.46-1.14.74-1.75,1.11Z"/>
  <path class="cls-54" d="M504.99,164.99c-6.61-9.49-5.16-20.57,3.49-26.17,2.61-1.69,5.55-2.28,8.67-1.86-.91.42-1.78,1.07-2.73,1.21-13.41,2.1-14.13,15.47-10.13,23.9.43.91,2.09,1.55.71,2.91Z"/>
  <path class="cls-54" d="M515.48,160.34c2.62.09,5.26.06,7.86.32,1.21.12,3.2-1.17,3.53,1.2.28,2.02.18,3.92-1.92,5.37-5.6,3.87-12.4,3.77-18.28-.57,3.59.17,6.67,2.94,10.53,1.95,1.23-.32,2.59-.02,3.81-.7,2.08-1.17,5.37-1.73,4.73-4.82-.61-2.96-3.65-1.04-5.56-1.52-1.57-.4-3.56.82-4.71-1.23Z"/>
  <path class="cls-54" d="M504,179.13c9.39,4.01,18.48,3.5,27.26-1.79.97.84.12,1.28-.45,1.59-8.46,4.64-17.21,5.17-26.21,1.74-.59-.23-1.48-.61-.6-1.54Z"/>
  <path class="cls-50" d="M57.64,338.75c.03,9.8.07,19.61.09,29.41,0,.87.03,1.77-.77,2.39-.02-9.35-.04-18.7-.03-28.05,0-1.28-.33-2.66.71-3.75Z"/>
  <path class="cls-9" d="M189.88,469.41c-2.64,0-5.28-.17-7.9.04-3.54.28-3.77-1.13-2.92-4.13,2.93-10.32,5.6-20.71,8.42-31.06.4-1.48.56-3.59,2.49-3.66,2.09-.08,2.14,2.23,2.51,3.6,2.91,10.62,5.51,21.33,8.55,31.92.94,3.26-.24,3.46-2.81,3.33-2.77-.14-5.56-.03-8.34-.04Z"/>
  <path class="cls-15" d="M190.68,432.63c1.63,6.09,3.28,12.35,5,18.6,1.28,4.64,2.66,9.26,3.98,13.89.62,2.19.39,3.45-2.53,3.31-4.97-.25-9.97-.06-14.95-.07-1.36,0-2.72.13-2.1-2.11,3-10.82,5.9-21.67,8.87-32.5.14-.51.38-1.14,1.73-1.12Z"/>
</svg>