<?xml version="1.0" encoding="UTF-8"?>
<svg id="Layer_2" data-name="Layer 2" xmlns="http://www.w3.org/2000/svg" viewBox="0 0 1433 241.96">
  <defs>
    <style>
      .cls-1, .cls-2 {
        font-family: TTHovesProTrialVariable-Black, 'TT Hoves Pro Trial Variable';
        font-variation-settings: 'wdth' 100, 'wght' 900, 'slnt' 0;
        font-weight: 800;
      }

      .cls-1, .cls-3 {
        letter-spacing: 0em;
      }

      .cls-4, .cls-3, .cls-5 {
        font-family: TTHovesProTrialVariable, 'TT Hoves Pro Trial Variable';
        font-variation-settings: 'wdth' 100, 'wght' 400, 'slnt' 0;
      }

      .cls-6, .cls-7 {
        fill: #006837;
      }

      .cls-7 {
        font-size: 203.07px;
      }

      .cls-5 {
        letter-spacing: -.03em;
      }
    </style>
  </defs>
  <g id="Layer_1-2" data-name="Layer 1">
    <text class="cls-7" transform="translate(274.51 185.67)"><tspan class="cls-5" x="0" y="0">F</tspan><tspan class="cls-4" x="108.64" y="0">or</tspan><tspan class="cls-3" x="291.4" y="0">t</tspan><tspan class="cls-4" x="358.41" y="0">une</tspan><tspan class="cls-2" x="701.59" y="0">B</tspan><tspan class="cls-1" x="838.66" y="0">et</tspan><tspan class="cls-2" x="1050.87" y="0">s</tspan></text>
    <g>
      <path class="cls-6" d="m114.3.07c-3.68.26-9.94.95-10.13,1.14-.16.16,3.09,24.27,3.3,24.48.05.05.69-.03,1.45-.13,3.07-.5,10.18-.85,14.52-.74l4.57.13.13-1.08c.29-2.3,1.51-23.48,1.37-23.61-.19-.19-13.03-.34-15.23-.19Z"/>
      <path class="cls-6" d="m138.25,1.94c-.26,1.35-3.36,23.66-3.28,23.74.05.03,1.27.26,2.72.5,3.78.63,9.78,2.14,13.7,3.44,1.85.61,3.36,1.11,3.36,1.08s1.96-5.18,4.36-11.5c2.38-6.29,4.28-11.55,4.2-11.66-.21-.37-8.7-3.04-12.82-4.05-3.75-.93-10.66-2.27-11.61-2.27-.32,0-.53.24-.63.71Z"/>
      <path class="cls-6" d="m90.77,3.77c-7.91,2.06-19.7,6.48-19.7,7.35,0,.63,9.99,22.08,10.29,22.1.13,0,1.69-.58,3.46-1.3,4.2-1.72,9.62-3.52,13.01-4.28,1.75-.4,2.72-.77,2.72-.98,0-.19-1.14-5.55-2.51-11.9s-2.51-11.63-2.51-11.74c0-.37-1.16-.19-4.76.74Z"/>
      <path class="cls-6" d="m166.28,22.17c-2.86,6.11-5.16,11.16-5.13,11.18.05.05,1.27.66,2.75,1.4,3.89,1.93,7.43,4.02,11.42,6.74,1.93,1.3,3.62,2.27,3.73,2.14s2.12-2.8,4.44-5.92c2.35-3.12,5.63-7.46,7.3-9.62l3.04-3.97-1.08-.82c-1.56-1.16-7.03-4.81-9.57-6.35-2.46-1.48-11.03-5.95-11.42-5.95-.16,0-2.62,5.02-5.47,11.16Z"/>
      <path class="cls-6" d="m59.3,16.93c-4.44,2.67-8.35,5.34-11.66,7.85-3.38,2.59-5.76,4.57-5.76,4.76-.03.11,2.43,2.96,5.47,6.35,3.01,3.41,6.64,7.59,8.09,9.31l2.62,3.12.71-.61c4.73-3.86,9.91-7.54,13.96-9.86,1.19-.69,2.17-1.37,2.17-1.51,0-.26-11.53-21.07-11.85-21.42-.11-.08-1.8.82-3.75,2.01Z"/>
      <path class="cls-6" d="m114.43,29.18c-1.64.11-7.88.82-9.07,1.03-.85.16-.9.24-.74.98.08.45.21.85.26.9s1.27-.08,2.7-.29c4.86-.74,10.39-1.03,15.78-.87l5.21.16v-1.75l-2.17-.16c-2.17-.19-9.39-.19-11.98,0Z"/>
      <path class="cls-6" d="m192.35,38.8l-8.22,9.28,3.73,3.6c3.23,3.15,8.14,8.59,9.89,11l.53.74,3.44-2.62c1.88-1.43,6.27-4.79,9.76-7.46,3.49-2.67,6.4-4.89,6.45-4.94.56-.48-10.07-12.29-15.34-17.05l-2.01-1.8-8.22,9.25Z"/>
      <path class="cls-6" d="m136.67,30.76c-.32.82-.16,1.4.45,1.53,5.24,1.16,6.77,1.53,8.78,2.12,3.44,1,6.74,2.17,9.91,3.49,1.53.66,2.91,1.24,3.07,1.3.26.13,1.08-1.37.87-1.59-.05-.05-1.53-.71-3.28-1.43-5.47-2.3-11.26-4.07-17.34-5.31-2.01-.42-2.35-.42-2.46-.11Z"/>
      <path class="cls-6" d="m93.15,33.11c-5.45,1.67-13.46,5.1-17.9,7.69l-1.11.66.42.69c.24.4.48.74.48.79.03.03,1.27-.61,2.72-1.43,4.65-2.54,13.25-6,17.98-7.24,1.11-.29,1.35-.69.95-1.69-.21-.53.05-.56-3.54.53Z"/>
      <path class="cls-6" d="m115.88,35.11c-17.66,1.3-33.82,7.56-48.04,18.56-3.41,2.67-11.37,10.52-14.09,13.96-12.64,15.94-19.25,34.77-19.25,54.86s6.66,38.95,19.2,54.73c3.07,3.83,10.31,11.05,14.12,13.99,17.13,13.3,37.33,19.72,58.62,18.64,12.51-.63,23.48-3.52,34.74-9.15,20.49-10.23,36.14-28.08,43.63-49.73,2.96-8.57,4.36-16.42,4.65-25.83.42-14.94-2.59-28.82-9.17-41.93-6.87-13.64-17.74-25.81-30.54-34.16-11.53-7.48-24.69-12.16-38.47-13.64-3.68-.4-11.82-.56-15.39-.29Zm-4.94,30.41c.77.16,2.96.95,4.84,1.75,3.09,1.35,3.68,1.51,5.31,1.51,1.67.03,2.25-.13,5.61-1.48,4.57-1.85,6.03-2.14,8.38-1.77,4.49.71,8.33,3.23,10.1,6.61.77,1.51.63,4.18-.4,6.8-1.08,2.8-5.5,11.47-9.39,18.45-3.81,6.8-13.7,23.4-13.96,23.4-.66,0-14.91-24.69-19.78-34.24-4.52-8.94-5.24-11.63-3.86-14.54,1.14-2.46,4.36-4.89,7.96-6.03,2.33-.74,3.23-.82,5.18-.45Zm-25.46,18.75c3.75,1.9,14.73,13.11,30.56,31.2,3.54,4.05,4.86,5.71,4.6,5.87-.77.42-20.2,4.73-29.03,6.42-10.5,2.01-18.35,3.01-20.89,2.64-4.36-.61-7.06-5.21-6.82-11.63.08-2.35.19-2.83.95-4.36.48-.95,1.77-2.72,2.99-4.07,3.81-4.23,4.05-4.94,3.62-11.13-.29-3.83-.26-4.42.16-5.98.58-2.17,2.09-4.49,4.15-6.4,3.36-3.12,6.85-4.02,9.7-2.56Zm76.94-.29c3.75,1.19,7.38,4.84,8.67,8.75.37,1.19.42,1.9.24,4.73-.37,5.87-.32,6.9.45,8.38.4.71,1.77,2.59,3.09,4.18,1.32,1.56,2.7,3.41,3.04,4.1,2.43,4.79.93,12.53-2.96,15.26l-1.16.79h-4.39c-4.65-.03-6.19-.21-15.26-1.88-9.89-1.82-31.52-6.56-31.94-6.98-.24-.21.85-1.59,6.53-8.06,11.13-12.69,22.47-24.46,26.39-27.44,2.99-2.27,4.55-2.67,7.3-1.82Zm-41.3,39.5c-.11.93-.42,4.34-.71,7.61-1.64,18.48-3.78,34.05-5.39,39.26-1.4,4.57-3.83,6.13-9.23,5.9-2.19-.11-3.07-.29-4.86-1-2.88-1.11-4.65-2.8-6.66-6.42-2.64-4.73-3.6-5.45-9.36-6.8-4.15-.98-6.03-1.93-7.98-4.05-3.86-4.18-4.94-9.97-2.49-13.4,1.77-2.49,14.15-8.8,34.53-17.66,4.36-1.88,8.75-3.78,9.76-4.23,2.62-1.14,2.59-1.14,2.41.79Zm4.81-.03c16.08,6.74,31.99,14.17,37.91,17.74,4.28,2.59,5.47,3.97,5.87,6.85.42,2.96-1.37,7.48-4.05,10.26-1.88,1.93-3.49,2.7-7.69,3.6-5.18,1.11-6.32,1.96-9.12,6.74-3.25,5.55-7.22,7.85-13.09,7.61-3.94-.16-6.21-1.45-7.4-4.2-1.59-3.73-3.57-16.6-5.42-35.54-1.11-11.32-1.37-14.67-1.11-14.67.13,0,1.98.74,4.1,1.61Z"/>
      <path class="cls-6" d="m33.02,38.01c-4.12,4.34-8.73,10.07-12.03,14.99l-1.64,2.43,4.18,2.75c2.3,1.51,6.9,4.52,10.23,6.74,3.33,2.19,6.16,3.99,6.27,3.99s1.03-1.22,2.06-2.72c2.43-3.54,5.74-7.64,8.7-10.79l2.41-2.54-8.8-8.65c-4.86-4.73-8.88-8.62-8.96-8.62s-1.16,1.08-2.41,2.41Z"/>
      <path class="cls-6" d="m166.62,42.18l-.42.74,4.39,2.91c4.89,3.28,8.09,5.76,11.92,9.31l2.56,2.38.58-.61c.29-.32.56-.66.56-.77,0-.08-1.4-1.43-3.09-2.99-4.42-3.99-10.42-8.43-14.89-11.03l-1.19-.69-.42.74Z"/>
      <path class="cls-6" d="m64.57,47.79c-4.57,3.49-9.62,8.14-13.25,12.22l-1.85,2.09.61.63.58.63,3.81-3.97c4.02-4.15,7.98-7.72,11.55-10.36,1.19-.87,2.17-1.61,2.22-1.67.13-.13-.77-1.45-1-1.45-.11,0-1.32.85-2.67,1.88Z"/>
      <path class="cls-6" d="m212.79,62.09c-5.53,3.62-10.15,6.69-10.26,6.82-.13.11.5,1.43,1.4,2.93,1.85,3.15,5.34,10.18,6.58,13.38l.87,2.17.95-.37c2.38-.85,22.13-8.38,22.21-8.46.21-.19-3.04-7.64-5.13-11.77-2.09-4.18-5.95-10.92-6.4-11.21-.11-.05-4.73,2.86-10.23,6.5Z"/>
      <path class="cls-6" d="m191.03,62.78l-.63.48,3.01,3.99c3.09,4.15,6.03,8.83,8.43,13.48l1.4,2.7.74-.4c.4-.21.74-.45.74-.53,0-.45-3.49-6.9-5.29-9.76-2.09-3.36-7.27-10.44-7.61-10.44-.11,0-.45.24-.79.48Z"/>
      <path class="cls-6" d="m12.56,67.51c-3.25,6.64-7.91,18.75-7.4,19.27.21.19,22.9,6.98,23.35,6.98.16,0,.71-1.27,1.24-2.86,1.43-4.31,2.72-7.46,4.84-11.9l1.96-4.02-.58-.37c-.32-.21-4.81-2.72-9.97-5.58-5.16-2.88-9.78-5.45-10.23-5.74l-.87-.53-2.33,4.73Z"/>
      <path class="cls-6" d="m43.86,69.52c-2.27,2.99-6.53,10.76-8.73,15.92-1.98,4.68-2.01,4.79-.95,5.02.45.11.85.13.87.08.05-.03.58-1.4,1.22-2.99,1.96-4.92,4.89-10.55,8.01-15.31.85-1.3,1.53-2.43,1.53-2.54s-.29-.4-.66-.63c-.61-.4-.66-.4-1.3.45Z"/>
      <path class="cls-6" d="m225.35,90.36c-6.32,1.9-11.55,3.49-11.61,3.54-.05.08.32,1.88.85,4.02,1.03,4.15,1.82,8.75,2.33,13.3l.29,2.78,4.94-.32c2.7-.16,8.2-.5,12.19-.74,3.99-.26,7.35-.56,7.46-.63.24-.21-.4-6.37-1.11-10.76-1.03-6.45-3.04-14.65-3.54-14.62-.16,0-5.47,1.56-11.79,3.44Z"/>
      <path class="cls-6" d="m207.1,90.38c-.34.13-.69.29-.74.34s.32,1.37.82,2.96c1.11,3.36,2.35,8.3,2.93,11.45.37,1.96,1.22,7.91,1.22,8.51,0,.11.42.21.95.21h.93l-.16-1.53c-.34-3.12-1.48-9.6-2.25-12.69-.79-3.28-2.56-9.04-2.88-9.33-.08-.11-.45-.08-.82.08Z"/>
      <path class="cls-6" d="m2.22,98.32c-1.19,6.53-1.8,11.74-2.04,18.32l-.19,4.49h24.93v-1.88c0-4.05,1-13.25,1.98-17.95l.16-.79-7.88-1.69c-4.34-.95-9.65-2.09-11.85-2.56-2.17-.5-4.1-.9-4.26-.9-.19,0-.53,1.24-.87,2.96Z"/>
      <path class="cls-6" d="m30.11,100.8c-1.3,5.5-2.09,11.74-2.35,18.4l-.11,2.59h.85c.74,0,.87-.11,1.03-.82.08-.45.16-1.85.16-3.12,0-4.31,1.08-12.08,2.41-17.32.29-1.14.48-2.12.42-2.17s-.45-.19-.9-.26l-.82-.16-.69,2.86Z"/>
      <path class="cls-6" d="m217.31,124.86c-.19,4.42-.69,9.02-1.51,13.56-.29,1.64-.48,3.01-.45,3.04.29.19,24.03,5.24,24.14,5.16.19-.21,1.4-7.14,1.82-10.55.5-3.97.95-10.18.95-13.09v-2.12h-24.77l-.19,3.99Z"/>
      <path class="cls-6" d="m211.76,122.11c-.08.19-.19,2.14-.26,4.34-.21,5.42-.95,10.84-2.3,16.58-.32,1.27-.5,2.38-.45,2.46.08.05.48.16.9.26l.79.16.61-2.62c1.43-6.24,2.41-13.99,2.41-19.14v-2.35h-.79c-.45,0-.85.16-.9.32Z"/>
      <path class="cls-6" d="m13.96,128.69c-5.98.4-11.47.74-12.24.74l-1.4.03.16,1.64c.74,7.32,1.8,13.67,3.36,19.75.56,2.25,1.06,4.15,1.14,4.2.05.05,4.79-1.27,10.5-2.99,13.8-4.1,13.17-3.89,13.17-4.2,0-.16-.37-1.72-.82-3.46-.93-3.65-1.9-9.25-2.35-13.56-.19-1.61-.4-2.93-.5-2.93-.08.03-5.02.37-11,.79Z"/>
      <path class="cls-6" d="m28.21,131.76c.56,5.53,2.04,12.53,3.89,18.38,1.08,3.52,1.37,3.86,2.41,3.04.4-.29.34-.58-.48-3.04-1.75-5.29-3.38-12.9-3.94-18.38l-.19-1.77h-1.85l.16,1.77Z"/>
      <path class="cls-6" d="m213.05,149.74c-.82,2.86-3.36,9.17-5.31,13.25q-1.93,4.02-1.35,4.39c.32.19,4.68,2.64,9.7,5.45,5.02,2.8,9.62,5.39,10.23,5.74l1.14.66,2.33-4.73c1.27-2.59,3.04-6.56,3.94-8.8,1.85-4.68,3.68-10.23,3.44-10.47-.21-.21-22.87-6.98-23.37-6.98-.16,0-.5.69-.74,1.51Z"/>
      <path class="cls-6" d="m205.01,156.09c-2.09,5.16-5.5,11.61-8.54,16.13l-1.27,1.9.77.53.77.56,1.43-2.17c2.41-3.68,4.42-7.24,6.29-11.16,1.8-3.75,3.54-8.06,3.36-8.25-.05-.05-.45-.16-.87-.26-.77-.16-.79-.13-1.93,2.72Z"/>
      <path class="cls-6" d="m19.38,158.97c-6.32,2.41-11.53,4.42-11.58,4.47-.21.19,3.04,7.61,5.13,11.77,2.09,4.15,5.95,10.92,6.37,11.18.16.11,18.11-11.5,20.28-13.09.48-.34.42-.5-1.14-3.15-2.14-3.6-4.44-8.17-5.82-11.47-.61-1.45-1.24-2.96-1.43-3.36l-.32-.71-11.5,4.36Z"/>
      <path class="cls-6" d="m37.28,160.74c-.66.21-.74.34-.58.95.26,1.14,3.73,7.3,6.13,11,2.17,3.28,6.35,8.86,6.64,8.86.08,0,.42-.24.74-.56l.58-.56-1.88-2.41c-3.57-4.55-6.45-9.04-9.23-14.36-1.67-3.17-1.67-3.2-2.41-2.93Z"/>
      <path class="cls-6" d="m200.15,175.94c-2.41,3.49-5.98,7.88-8.88,10.95l-2.14,2.27,8.86,8.65,8.88,8.67,1.06-1.03c3.3-3.15,9.52-10.73,13.03-15.89l2.04-2.96-1.14-.77c-2.46-1.67-19.12-12.56-19.41-12.66-.16-.05-1.22,1.19-2.3,2.78Z"/>
      <path class="cls-6" d="m34.58,185.8c-5.08,3.94-9.47,7.3-9.76,7.51-.48.34-.48.4.13,1.24,3.07,4.31,16.37,18.3,16.9,17.77.13-.13,3.86-4.31,8.28-9.31l8.04-9.1-4.79-4.79c-2.64-2.64-5.79-6.05-7.01-7.59-1.22-1.53-2.27-2.8-2.38-2.83-.08-.03-4.31,3.17-9.41,7.09Z"/>
      <path class="cls-6" d="m187.93,183.19c-2.93,3.3-8.01,7.96-11.95,10.97-1.64,1.24-2.99,2.35-2.99,2.46s.21.48.48.82l.5.58,2.22-1.67c4.92-3.73,8.94-7.35,12.69-11.5l2.88-3.15-.58-.61c-.32-.34-.63-.61-.71-.61s-1.22,1.22-2.54,2.7Z"/>
      <path class="cls-6" d="m55.58,186.99l-.63.69,1.85,1.72c5.08,4.76,11.4,9.54,16.18,12.27q1.11.63,1.51.11c.24-.29.42-.66.42-.82s-.98-.9-2.19-1.61c-4.76-2.93-10.34-7.22-14.62-11.24l-1.88-1.8-.63.69Z"/>
      <path class="cls-6" d="m181.46,195.98c-3.23,2.59-7.14,5.31-11.18,7.77-1.56.95-2.86,1.82-2.86,1.93-.03.19,11.55,21.02,11.85,21.34.63.66,18.85-11.79,20.89-14.3.29-.34-.29-1.11-3.54-4.76-2.12-2.38-5.58-6.37-7.69-8.83-2.12-2.49-4.02-4.71-4.26-4.94-.4-.42-.61-.32-3.2,1.8Z"/>
      <path class="cls-6" d="m61.08,201.3c-1.24,1.72-4.57,6.13-7.4,9.84l-5.18,6.74,1.61,1.16c2.64,1.93,8.09,5.45,11.05,7.14,3.49,1.98,9.47,4.97,9.62,4.79.24-.24,10.47-22.26,10.39-22.37-.05-.03-1.27-.66-2.72-1.37-3.7-1.82-7.38-3.97-11.37-6.66-1.88-1.3-3.52-2.35-3.6-2.35s-1.16,1.4-2.41,3.09Z"/>
      <path class="cls-6" d="m161.76,203.07c-4.79,2.43-9.68,4.44-14.28,5.84-1.75.53-3.17.98-3.23,1-.03.05.03.42.16.87.16.56.34.74.71.69,1.08-.16,6.74-2.01,9.62-3.15,3.2-1.24,11.26-5.16,11.85-5.74.26-.26.29-.48.03-1.03-.19-.4-.4-.69-.48-.69-.08.03-2.06,1-4.39,2.19Z"/>
      <path class="cls-6" d="m81.75,205.18c-.24.48-.24.79-.05.98,1.06,1.06,11.79,4.81,17.71,6.19,4.76,1.14,5,1.14,5.21.24.11-.4.11-.77.03-.85s-1.9-.56-4.05-1.03c-4.81-1.06-9.68-2.59-14.33-4.49-1.96-.79-3.73-1.51-3.89-1.59-.19-.08-.48.19-.63.56Z"/>
      <path class="cls-6" d="m158.98,209.49c-3.83,1.77-15.04,5.37-16.71,5.37-.29,0-.48.19-.48.5,0,.29,1.14,5.66,2.51,11.98,1.37,6.29,2.51,11.53,2.51,11.63,0,.37,1,.21,4.68-.71,7.19-1.85,19.7-6.45,19.83-7.3.08-.66-10.07-22.05-10.5-22.1-.21-.03-1.06.26-1.85.63Z"/>
      <path class="cls-6" d="m87.09,212.59c-.26.74-2.25,5.92-4.36,11.47-2.12,5.58-3.81,10.26-3.73,10.39.48.74,13.72,4.44,20.31,5.66,4.71.85,4.63.85,4.81-.21.29-1.72,3.3-23.56,3.23-23.58-.03-.03-1.53-.32-3.36-.63-4.23-.77-9.65-2.14-13.4-3.44l-2.96-1.03-.53,1.37Z"/>
      <path class="cls-6" d="m132.94,212.09c-3.94.63-10.95.98-15.63.79l-4.52-.19-.19.74c-.11.4-.08.79.03.93.4.4,9.39.56,13.7.26,4.6-.34,9.94-1,10.23-1.3.08-.11.11-.5.03-.93-.16-.82-.29-.85-3.65-.32Z"/>
      <path class="cls-6" d="m131.88,216.63c-1.72.26-5.21.4-10.13.42l-7.46.05-.13.79c-.26,1.88-1.51,23.69-1.32,23.88.08.11,3.83.19,8.28.19,5.98,0,9.28-.13,12.48-.48,2.41-.26,4.44-.56,4.55-.66s-.58-5.66-1.51-12.35c-.95-6.69-1.72-12.19-1.72-12.24,0-.03-.08-.03-.19-.03-.13.03-1.4.21-2.86.42Z"/>
    </g>
  </g>
</svg>